<?xml version="1.0" encoding="utf-8"?>
<svg xmlns="http://www.w3.org/2000/svg" xmlns:xlink="http://www.w3.org/1999/xlink" version= "1.1" width="127px" height="126px" viewBox="476 1113 127 126">
<g id="layer1">
<g style="fill:rgb(9,31,100); fill-opacity:1.0; stroke-linejoin: miter">
<path d="M592.29486,1172.3682L592.29486,1172.3682L592.29486,1172.3682C592.06775,1172.6432,591.6607,1172.682,591.38574,1172.4548C591.1108,1172.2278,591.072,1171.8207,591.29913,1171.5458L591.29913,1171.5458L591.29913,1171.5458C591.52625,1171.2708,591.9332,1171.2319,592.20825,1171.4591C592.4832,1171.6862,592.522,1172.0933,592.29486,1172.3682 Z"/>
</g>
<g style="fill:rgb(9,31,100); fill-opacity:1.0; stroke-linejoin: miter">
<path d="M590.09375,1172.1831L590.09375,1172.1831L590.01215,1171.4761L592.33044,1172.0298L585.5609,1182.276C585.3227,1182.6366,584.91736,1182.8511,584.4853,1182.8451L584.4853,1182.8451L493.4238,1181.5991C493.02393,1181.5938,492.6501,1181.4,492.415,1181.0764L492.415,1181.0764L485.70935,1171.8466C485.2976,1171.2799,485.42328,1170.4867,485.99,1170.075C486.5567,1169.6632,487.3499,1169.7888,487.76166,1170.3556L487.76166,1170.3556L494.46732,1179.5854L493.4585,1179.0626L584.52,1180.3086L583.4444,1180.8777L590.2139,1170.6315C590.50775,1170.1866,591.04834,1169.973,591.56683,1170.0969C592.0853,1170.2207,592.47107,1170.6555,592.53217,1171.1852L592.53217,1171.1852L592.6138,1171.8921C592.69415,1172.588,592.1951,1173.2173,591.49927,1173.2976C590.80334,1173.3779,590.17413,1172.8789,590.09375,1172.1831 Z"/>
</g>
<g style="fill:rgb(9,31,100); fill-opacity:1.0; stroke-linejoin: miter">
<path d="M590.8338,1172.8657L590.8338,1172.8657L488.2496,1172.0935C488.18304,1172.093,488.11664,1172.0873,488.051,1172.0764L488.051,1172.0764C487.9729,1172.0634,487.8846,1172.0487,487.80576,1172.0355L487.80576,1172.0355C485.05414,1171.5753,481.54694,1170.9652,479.98474,1167.0171L479.98474,1167.0171C478.5669,1163.434,478.85614,1157.0641,479.04358,1152.4963L479.04358,1152.4963L479.05112,1152.3129L479.05112,1152.3129C479.2447,1147.5898,479.36127,1144.2795,479.47806,1140.9642L479.4781,1140.9633L479.47845,1140.9531C479.4878,1140.694,479.5763,1140.4438,479.7321,1140.2366L479.7321,1140.2366C481.05756,1138.473,482.52026,1136.5103,484.36847,1135.1504L484.36847,1135.1504C486.22787,1133.7821,488.41452,1133.0686,490.3669,1132.4216C490.49518,1132.3792,490.6294,1132.3574,490.76453,1132.3573L490.7646,1132.3573L490.82468,1132.3572L490.82465,1132.3572C498.67075,1132.3488,506.54364,1132.3412,522.7407,1132.6742L522.7407,1132.6742C538.9731,1133.0079,563.57043,1133.6838,588.1611,1134.3596C588.2641,1134.3624,588.36633,1134.3778,588.46564,1134.4054L588.46564,1134.4054C590.8153,1135.0579,593.599,1135.7997,595.55066,1137.7388L595.55066,1137.7388C597.4754,1139.6511,598.4763,1142.6245,599.3631,1145.1862C599.41394,1145.333,599.4374,1145.488,599.4321,1145.6434L599.4321,1145.6434L598.76074,1165.7279C598.7546,1165.9121,598.70825,1166.0929,598.62506,1166.2576L598.62506,1166.2576C597.8025,1167.8853,596.85486,1169.7911,595.64825,1171.0062L595.64825,1171.0062C594.37006,1172.2933,592.87506,1172.7705,591.8231,1172.9188L591.8231,1172.9188C591.2024,1173.0062,590.69257,1172.986,590.31335,1172.9225L590.3134,1172.9225C590.2123,1172.9056,590.11633,1172.885,590.0269,1172.8608L590.0269,1172.8608C589.94293,1172.8381,589.6853,1172.7686,589.45575,1172.5975L589.4557,1172.5975C589.6127,1172.7145,588.37897,1171.8914,589.18774,1170.8059L589.18774,1170.8059C589.69556,1170.1244,590.7392,1170.2924,590.3338,1170.2839L590.30743,1171.5521L590.30743,1171.5521L590.0078,1170.3196L590.0078,1170.3196L590.33386,1170.2839C590.5195,1170.2878,590.7934,1170.3171,590.97314,1170.3357C591.64667,1170.4049,592.14703,1170.9911,592.1098,1171.6671C592.0726,1172.3431,591.51086,1172.8708,590.8338,1172.8657L590.8338,1172.8657 M590.8529,1170.329L590.71356,1172.8591C590.47754,1172.8348,590.33563,1172.8213,590.28107,1172.8202L590.60706,1172.7845L590.60706,1172.7845L590.30743,1171.5521L590.30743,1171.5521L590.28107,1172.8202C589.7599,1172.8093,590.7285,1172.9838,591.22186,1172.3217L591.22186,1172.3217C592.0243,1171.2448,590.7959,1170.4326,590.97156,1170.5635L590.9715,1170.5635C590.7809,1170.4214,590.62024,1170.3934,590.6887,1170.4119L590.6887,1170.4119C590.68976,1170.4121,590.7039,1170.4159,590.7319,1170.4205L590.7319,1170.4205C590.84,1170.4386,591.0888,1170.4604,591.46924,1170.4069L591.46924,1170.4069C592.1305,1170.3136,593.0591,1170.0134,593.84827,1169.2186L593.84827,1169.2186C594.70905,1168.3519,595.4725,1166.8717,596.361,1165.1134L596.2254,1165.6431L596.8968,1145.5586L596.9659,1146.016C596.0179,1143.2775,595.184,1140.9506,593.7627,1139.5383L593.7627,1139.5383C592.36835,1138.153,590.2946,1137.546,587.78687,1136.8496L588.09143,1136.8954C563.49664,1136.2196,538.9101,1135.544,522.6886,1135.2104L522.6886,1135.2104C506.51562,1134.8779,498.6626,1134.8855,490.82736,1134.8939L490.82733,1134.8939L490.7672,1134.894L491.16486,1134.8296C489.14154,1135.5001,487.35248,1136.1041,485.87195,1137.1936L485.87195,1137.1936C484.38025,1138.2911,483.1386,1139.9264,481.75995,1141.7607L482.01358,1141.0443L482.0132,1141.0544L482.01324,1141.0536C481.89655,1144.3674,481.77957,1147.6882,481.58575,1152.4167L481.58575,1152.4167L481.57822,1152.6002L481.57822,1152.6003C481.37952,1157.442,481.17398,1163.1279,482.34357,1166.0837L482.34357,1166.0837C483.32877,1168.5736,485.3567,1169.054,488.22424,1169.5336L488.22424,1169.5336C488.2978,1169.5459,488.39294,1169.5616,488.4673,1169.5741L488.2687,1169.5569L590.8529,1170.329 Z"/>
</g>
<g style="fill:rgb(9,31,100); fill-opacity:1.0; stroke-linejoin: miter">
<path d="M491.54047,1162.1946L491.54047,1162.1946L491.5405,1162.1945C491.65384,1162.1641,491.77084,1162.1495,491.88818,1162.1514L491.88818,1162.1514L585.6134,1163.5566C586.31384,1163.5671,586.8731,1164.1434,586.8626,1164.8439C586.8521,1165.5443,586.2758,1166.1036,585.5754,1166.0931L585.5754,1166.0931L491.85016,1164.6879L492.1978,1164.6447L492.1978,1164.6447C491.52124,1164.8262,490.8256,1164.4248,490.64407,1163.7483C490.46255,1163.0717,490.8639,1162.3761,491.54047,1162.1946 Z"/>
</g>
<g style="fill:rgb(9,31,100); fill-opacity:1.0; stroke-linejoin: miter">
<path d="M491.81683,1156.475L491.81683,1156.475L491.81686,1156.4749C491.9302,1156.4445,492.0472,1156.4299,492.16455,1156.4318L492.16455,1156.4318L585.8898,1157.837C586.5902,1157.8475,587.1495,1158.4238,587.139,1159.1243C587.1285,1159.8247,586.5522,1160.384,585.85175,1160.3735L585.85175,1160.3735L492.12653,1158.9683L492.47418,1158.925L492.47418,1158.925C491.7976,1159.1066,491.10196,1158.7052,490.92044,1158.0287C490.73892,1157.352,491.14026,1156.6565,491.81683,1156.475 Z"/>
</g>
<g style="fill:rgb(9,31,100); fill-opacity:1.0; stroke-linejoin: miter">
<path d="M494.31195,1143.317L494.31195,1143.317L494.31195,1143.317C494.38293,1143.3107,494.45422,1143.3079,494.52548,1143.3087L494.52548,1143.3087L503.99777,1143.4279C505.15573,1143.4425,506.08267,1144.3931,506.06808,1145.551C506.05353,1146.709,505.103,1147.6359,503.945,1147.6213L503.945,1147.6213L494.47275,1147.5022L494.68625,1147.494L494.68625,1147.494C493.53278,1147.5973,492.51395,1146.7461,492.41058,1145.5927C492.30722,1144.4392,493.15848,1143.4203,494.31195,1143.317 Z"/>
</g>
<g style="fill:rgb(9,31,100); fill-opacity:1.0; stroke-linejoin: miter">
<path d="M557.2939,1187.4308L557.2939,1187.4308L559.22894,1194.2295C559.54596,1195.3433,558.9,1196.5033,557.7862,1196.8203C556.67236,1197.1373,555.51245,1196.4913,555.1954,1195.3776L555.1954,1195.3776L553.2603,1188.5789C552.9433,1187.465,553.58923,1186.305,554.70306,1185.988C555.8169,1185.671,556.97687,1186.317,557.2939,1187.4308 Z"/>
</g>
<g style="fill:rgb(9,31,100); fill-opacity:1.0; stroke-linejoin: miter">
<path d="M561.5998,1201.668L561.5998,1201.668L563.53485,1208.4667C563.85187,1209.5804,563.20593,1210.7405,562.0921,1211.0575C560.9783,1211.3745,559.81836,1210.7285,559.5013,1209.6147L559.5013,1209.6147L557.5662,1202.816C557.2492,1201.7021,557.89514,1200.5422,559.009,1200.2252C560.1228,1199.9082,561.2828,1200.5542,561.5998,1201.668 Z"/>
</g>
<g style="fill:rgb(9,31,100); fill-opacity:1.0; stroke-linejoin: miter">
<path d="M565.84155,1216.2556L565.84155,1216.2556L567.7766,1223.0543C568.0936,1224.1681,567.4477,1225.3281,566.33386,1225.6451C565.22003,1225.9622,564.0601,1225.3162,563.74304,1224.2024L563.74304,1224.2024L561.808,1217.4037C561.49097,1216.2898,562.1369,1215.1299,563.25073,1214.8129C564.36456,1214.4958,565.52454,1215.1418,565.84155,1216.2556 Z"/>
</g>
<g style="fill:rgb(9,31,100); fill-opacity:1.0; stroke-linejoin: miter">
<path d="M540.4031,1187.1055L540.4031,1187.1055L540.4774,1194.6663C540.4896,1195.9048,539.4953,1196.919,538.2567,1196.931C537.01794,1196.943,536.004,1195.9487,535.99176,1194.7103L535.99176,1194.7103L535.9173,1187.1494C535.90515,1185.9108,536.8994,1184.8966,538.13806,1184.8845C539.3768,1184.8724,540.3908,1185.8667,540.4031,1187.1055 Z"/>
</g>
<g style="fill:rgb(9,31,100); fill-opacity:1.0; stroke-linejoin: miter">
<path d="M540.1706,1202.34L540.1706,1202.34L540.24493,1209.9008C540.25714,1211.1393,539.2628,1212.1534,538.02423,1212.1655C536.78546,1212.1775,535.77155,1211.1832,535.7593,1209.9448L535.7593,1209.9448L535.6848,1202.3839C535.67267,1201.1453,536.66693,1200.1311,537.9056,1200.119C539.1443,1200.1069,540.1583,1201.1012,540.1706,1202.34 Z"/>
</g>
<g style="fill:rgb(9,31,100); fill-opacity:1.0; stroke-linejoin: miter">
<path d="M540.0402,1217.2458L540.0402,1217.2458L540.11456,1224.8066C540.1268,1226.0452,539.13245,1227.0593,537.89386,1227.0714C536.6551,1227.0834,535.6412,1226.0891,535.6289,1224.8507L535.6289,1224.8507L535.55444,1217.2898C535.5423,1216.0511,536.53656,1215.037,537.7752,1215.0249C539.0139,1215.0128,540.02795,1216.0071,540.0402,1217.2458 Z"/>
</g>
<g style="fill:rgb(9,31,100); fill-opacity:1.0; stroke-linejoin: miter">
<path d="M523.2485,1188.3888L523.2485,1188.3888L520.956,1195.026C520.58044,1196.1133,519.3943,1196.6902,518.307,1196.3146C517.2196,1195.9388,516.64276,1194.7529,517.0182,1193.6656L517.0182,1193.6656L519.31067,1187.0284C519.68634,1185.9412,520.8723,1185.364,521.95966,1185.7397C523.047,1186.1155,523.624,1187.3015,523.2485,1188.3888 Z"/>
</g>
<g style="fill:rgb(9,31,100); fill-opacity:1.0; stroke-linejoin: miter">
<path d="M518.91516,1202.7L518.91516,1202.7L516.6227,1209.3372C516.24713,1210.4244,515.061,1211.0013,513.9737,1210.6257C512.8863,1210.25,512.30945,1209.0641,512.6849,1207.9768L512.6849,1207.9768L514.97736,1201.3396C515.353,1200.2523,516.539,1199.6752,517.62634,1200.0509C518.7137,1200.4266,519.2907,1201.6127,518.91516,1202.7 Z"/>
</g>
<g style="fill:rgb(9,31,100); fill-opacity:1.0; stroke-linejoin: miter">
<path d="M514.18005,1216.7333L514.18005,1216.7333L511.88757,1223.3705C511.51202,1224.4578,510.32587,1225.0347,509.2386,1224.659C508.15118,1224.2833,507.57434,1223.0974,507.94977,1222.0101L507.94977,1222.0101L510.24225,1215.3729C510.61792,1214.2856,511.8039,1213.7085,512.89124,1214.0842C513.9786,1214.46,514.5556,1215.646,514.18005,1216.7333 Z"/>
</g>
</g>
<g id="layer2">
</g>
<g id="layer3">
</g>
<g id="layer4">
</g>
<g id="layer5">
</g>
</svg>