<?xml version="1.0" encoding="utf-8"?>
<svg xmlns="http://www.w3.org/2000/svg" xmlns:xlink="http://www.w3.org/1999/xlink" version= "1.1" width="127px" height="126px" viewBox="476 1113 127 126">
<g id="layer1">
</g>
<g id="layer2">
<g style="fill:rgb(255,255,255); fill-opacity:1.0; stroke-linejoin: miter">
<path d="M544.2856,1219.0382L532.38446,1224.1112Q532.2052,1226.0011,532.517,1226.995Q533.51337,1229.8832,534.6626,1231.1326Q535.45483,1231.8312,535.6168,1231.9045Q535.93713,1232.1205,536.26044,1232.281Q536.81995,1232.579,537.7398,1232.7489Q538.48773,1232.8374,540.4809,1232.0806Q541.53345,1231.6216,542.02563,1231.0422Q544.17413,1228.0972,544.30054,1227.4137Q544.97046,1225.05,545.09674,1222.7551Q545.09814,1222.1174,544.9712,1221.3485Q544.8125,1220.9122,544.39746,1220.102Q544.26904,1219.7576,544.2856,1219.0382"/>
</g>
<g style="fill:rgb(255,255,255); fill-opacity:1.0; stroke-linejoin: miter">
<path d="M518.8631,1176.7648L518.729,1176.7667Q515.5749,1176.926,513.32684,1178.7975Q512.586,1179.4373,511.9571,1180.2886L511.3562,1181.1927L510.81128,1182.2028Q510.67978,1182.4235,510.81195,1182.829Q511.37314,1184.0048,511.8018,1184.4617Q512.85724,1185.8275,514.96735,1187.9327Q520.5277,1192.835,522.596,1194.0538L523.99585,1195.3723Q524.1905,1195.7135,524.26105,1197.4999Q524.23663,1198.219,524.0617,1198.9517Q523.7119,1200.4169,522.7602,1201.9357L531.84814,1209.3474L533.65765,1208.4021Q535.35114,1207.4235,536.58057,1206.3113Q537.80994,1205.1991,538.57526,1203.9535Q540.1059,1201.4622,539.7801,1198.4369L537.7819,1193.6371L537.2312,1192.668Q536.768,1191.9312,531.41504,1186.0643L528.29236,1181.9398L527.7582,1181.3741Q526.27405,1179.8314,522.8099,1177.9274Q520.6111,1176.9275,520.2915,1176.9508Q519.5272,1176.7648,518.8631,1176.7648"/>
</g>
<g style="fill:rgb(255,255,255); fill-opacity:1.0; stroke-linejoin: miter">
<path d="M549.4585,1187.6046L548.7938,1187.627Q546.06384,1187.806,542.1943,1189.417L538.3369,1192.481Q538.0635,1192.7358,537.6002,1193.4882Q537.6202,1193.4279,537.4827,1193.5712Q537.3564,1193.756,537.11725,1194.3102Q536.39984,1195.9731,534.6671,1200.9617L545.1323,1209.3724Q549.4658,1209.2281,551.62085,1207.8956Q552.91125,1207.2123,553.51764,1206.4921Q554.025,1205.9269,554.2446,1204.7047Q554.30884,1204.3632,554.34644,1203.9147L554.44244,1200.9187Q555.24084,1196.2759,555.24133,1195.2944Q555.4204,1194.9064,554.11426,1190.0337Q553.04736,1187.6786,549.4585,1187.6046"/>
</g>
<g style="fill:rgb(255,255,255); fill-opacity:1.0; stroke-linejoin: miter">
<path d="M562.4529,1135.6927L562.09955,1135.6968Q560.67926,1135.7289,559.1468,1136.0184Q553.46674,1137.6511,553.01,1137.9524Q549.4527,1139.506,549.4205,1139.7914Q548.6485,1140.3885,548.4426,1140.9647L548.3782,1141.5355L553.01117,1196.4482L562.4741,1189.7682Q563.18176,1189.2368,564.20953,1188.1901L575.02325,1174.0612Q578.23267,1168.6575,579.0066,1163.2704L579.1969,1161.4751Q579.3196,1159.6803,579.17163,1157.8873Q578.6531,1153.9408,578.39417,1153.1329Q578.29694,1152.3445,577.03467,1148.3092Q575.7833,1144.6583,574.6187,1142.5936Q572.6141,1139.3788,568.90076,1137.3694Q565.3212,1135.5168,562.4529,1135.6927"/>
</g>
<g style="fill:rgb(255,255,255); fill-opacity:1.0; stroke-linejoin: miter">
<path d="M543.896,1118.9208L543.376,1118.9232Q537.2171,1119.0056,536.301,1119.5527Q533.9013,1120.0961,528.99084,1123.0525Q526.0267,1124.7198,523.4613,1128.7506Q521.5735,1131.7554,522.51807,1132.8091L522.91156,1133.1061L577.04517,1146.9423Q576.018,1144.1426,574.74774,1141.5573Q571.35925,1135.2811,570.3898,1134.2828Q568.75476,1132.0188,566.8766,1129.9689L564.9376,1127.9725Q562.4003,1125.6101,561.7701,1125.1405Q558.3001,1122.3896,553.04224,1120.569Q551.7154,1120.0682,548.4869,1119.2461Q547.4609,1118.9706,543.896,1118.9208"/>
</g>
<g style="fill:rgb(255,255,255); fill-opacity:1.0; stroke-linejoin: miter">
<path d="M539.59216,1119.6523L537.4169,1119.7019Q533.048,1119.9003,528.5321,1120.892Q526.2742,1121.3878,523.9795,1122.0819Q518.1005,1124.0277,517.233,1124.5371Q513.17523,1126.3053,510.5825,1128.3221Q509.2861,1129.3306,508.35596,1130.4011Q507.79916,1130.8724,506.11517,1133.803Q504.83966,1136.3492,505.30704,1140.0884Q505.54074,1141.9579,506.21014,1144.1257Q506.5436,1145.5858,508.6567,1150.1748Q511.60342,1155.5771,518.69135,1156.8326L540.98083,1119.6729L539.59216,1119.6523"/>
</g>
<g style="fill:rgb(255,255,255); fill-opacity:1.0; stroke-linejoin: miter">
<path d="M509.38504,1133.3385L508.09808,1134.4509Q503.09317,1139.2284,500.37442,1149.2493Q499.8813,1151.5242,499.67432,1153.6976L499.53888,1155.8458Q499.47498,1157.9686,499.69724,1159.9899Q500.14175,1164.0326,501.7309,1167.6696Q503.48557,1170.335,505.12497,1172.4861Q509.1227,1177.414,509.784,1177.7823Q512.71716,1180.5417,515.18945,1181.244Q524.411,1184.3774,531.1998,1178.7042L509.38504,1133.3385"/>
</g>
<g style="fill:rgb(255,255,255); fill-opacity:1.0; stroke-linejoin: miter">
<path d="M500.9847,1160.9508L500.89737,1162.3466Q500.7516,1167.968,503.86502,1174.2058Q504.89426,1176.192,505.9247,1177.876Q506.4392,1178.9069,509.0189,1182.2476Q511.08353,1184.7086,513.1531,1185.9604Q518.50604,1188.9115,524.9603,1187.9507Q527.4759,1187.1698,527.927,1186.7213Q528.88336,1186.1288,529.7964,1185.2926Q531.6224,1183.6204,533.275,1180.9735L500.9847,1160.9508"/>
</g>
<g style="fill:rgb(255,255,255); fill-opacity:1.0; stroke-linejoin: miter">
<path d="M545.93616,1131.7148L519.7584,1133.4546L517.53894,1137.3804L515.77423,1141.6008L514.4641,1146.116L513.60876,1150.9258Q512.9807,1155.8828,513.2621,1161.4292L513.7708,1167.1228Q514.5069,1172.9637,516.15234,1179.394Q519.0206,1188.5375,521.1495,1191.7449Q523.6731,1196.2703,527.0363,1200.1317Q534.48804,1208.5084,541.4702,1207.635Q544.8292,1207.3143,550.9251,1203.4988Q552.9781,1201.9647,554.1926,1200.0691L561.35785,1188.3Q561.703,1188.4017,562.37,1177.9598L562.5201,1175.2179L562.3961,1166.3793L561.84247,1158.5419L560.85913,1151.7058L559.44617,1145.8708L557.6035,1141.0372L555.3312,1137.2047L552.62915,1134.3735L549.4975,1132.5436L545.93616,1131.7148"/>
</g>
</g>
<g id="layer3">
<g style="fill:rgb(9,31,100); fill-opacity:1.0; stroke-linejoin: miter">
<path d="M557.3444,1268.5449L557.34436,1268.545L557.3443,1268.5452L557.3444,1268.5449"/>
</g>
<g style="fill:rgb(9,31,100); fill-opacity:1.0; stroke-linejoin: miter">
<path d="M554.5254,1205.9006L554.5254,1205.9006L522.46783,1205.2036L524.6078,1203.0049L525.6575,1224.4962L523.52924,1222.502L553.19507,1222.0227L551.13666,1223.9811L552.47864,1203.6661L554.5254,1205.9006 M554.6166,1201.7079C555.1886,1201.7203,555.7308,1201.9661,556.11725,1202.3881C556.5037,1202.8099,556.701,1203.3716,556.66327,1203.9425L556.66327,1203.9425L555.3212,1224.2574C555.2493,1225.3464,554.35406,1226.1982,553.2628,1226.2158L553.2628,1226.2158L523.597,1226.6951C522.4657,1226.7134,521.5239,1225.8308,521.4687,1224.7008L521.4687,1224.7008L520.41907,1203.2095C520.3907,1202.6284,520.605,1202.0616,521.0108,1201.6447C521.41656,1201.2278,521.97736,1200.9982,522.559,1201.0107L522.559,1201.0107L554.6166,1201.7079 Z"/>
</g>
<g style="fill:rgb(9,31,100); fill-opacity:1.0; stroke-linejoin: miter">
<path d="M550.634,1211.2017L550.634,1211.2017L550.6339,1211.2017C550.628,1211.2021,550.6221,1211.2026,550.6161,1211.2031L550.6161,1211.2031L527.3745,1212.955C526.5944,1213.0138,525.9143,1212.4291,525.8555,1211.6489C525.7967,1210.8688,526.3815,1210.1887,527.16156,1210.1299L527.16156,1210.1299L550.40314,1208.378L550.3853,1208.3795L550.3854,1208.3795C551.1647,1208.3108,551.8521,1208.887,551.9208,1209.6663C551.9894,1210.4456,551.41327,1211.133,550.634,1211.2017 Z"/>
</g>
<g style="fill:rgb(9,31,100); fill-opacity:1.0; stroke-linejoin: miter">
<path d="M549.8945,1217.9182L549.8945,1217.9182L549.8944,1217.9182C549.8887,1217.9187,549.8829,1217.9191,549.877,1217.9194L549.877,1217.9194L527.1513,1219.3556C526.38855,1219.4038,525.7311,1218.8245,525.68286,1218.0618C525.63464,1217.2988,526.214,1216.6415,526.9767,1216.5931L526.9767,1216.5931L549.70245,1215.1571L549.685,1215.1582L549.68506,1215.1582C550.44714,1215.1002,551.11194,1215.6716,551.1698,1216.4335C551.2276,1217.1957,550.65656,1217.8604,549.8945,1217.9182 Z"/>
</g>
<g style="fill:rgb(9,31,100); fill-opacity:1.0; stroke-linejoin: miter">
<path d="M533.3757,1226.3203L533.3757,1226.3203L533.3757,1226.3203L533.2462,1226.0522C534.1471,1227.5049,534.9602,1228.8066,535.9697,1229.8738L535.9697,1229.8738C537.0789,1231.0465,537.991,1231.4762,538.5452,1231.3966L538.5452,1231.3966C538.60986,1231.3872,538.6842,1231.3695,538.769,1231.3398L538.769,1231.3398C539.46313,1231.0968,540.3135,1230.269,541.08453,1229.2079L541.08453,1229.2079C541.89594,1228.0911,542.3815,1227.0541,542.91876,1225.8986L542.7996,1226.6869L542.5167,1224.6084C542.4112,1223.8331,542.95404,1223.1193,543.72925,1223.0137C544.50446,1222.9082,545.2184,1223.451,545.3239,1224.2262L545.3239,1224.2262L545.6069,1226.3047C545.64343,1226.5735,545.6021,1226.847,545.48773,1227.093L545.48773,1227.093C544.95355,1228.2418,544.3677,1229.509,543.3765,1230.8732L543.3765,1230.8732C542.5704,1231.9828,541.2837,1233.461,539.70526,1234.0138L539.70526,1234.0138C539.46545,1234.0978,539.2124,1234.1628,538.9482,1234.2008L538.9482,1234.2008C536.8708,1234.4994,535.0534,1233.0278,533.9115,1231.8207L533.9115,1231.8207C532.66986,1230.508,531.7103,1228.9512,530.8385,1227.5454C530.7861,1227.4608,530.7427,1227.3708,530.70905,1227.2772L530.70905,1227.2772L530.70905,1227.2772C530.44476,1226.5409,530.8275,1225.7297,531.5639,1225.4655C532.30023,1225.2012,533.1114,1225.584,533.3757,1226.3203 Z"/>
</g>
<g style="fill:rgb(9,31,100); fill-opacity:1.0; stroke-linejoin: miter">
<path d="M524.59283,1201.1011L524.59283,1201.1011L524.59283,1201.1012L521.7693,1201.224L521.91644,1195.6473L522.43896,1196.7839C513.47046,1189.4933,504.10892,1181.9249,499.82803,1170.968L499.82803,1170.968C495.55283,1160.0255,496.35468,1145.759,504.01453,1135.064L504.01453,1135.064C510.9237,1125.4171,523.3186,1118.8153,535.3086,1117.4512L535.3086,1117.4512C536.5834,1117.3062,537.856,1117.2198,539.1195,1117.1957L539.1195,1117.1957C552.3248,1116.9427,564.2662,1123.4608,571.6139,1132.8778L571.6139,1132.8778C578.95667,1142.2885,581.7311,1154.6129,579.7472,1164.8599L579.7472,1164.8599C577.76154,1175.1163,571.0417,1183.1221,566.38196,1187.7888L566.38196,1187.7888C561.65076,1192.5272,558.79395,1194.063,555.99023,1195.5619L556.7198,1194.5447L555.2425,1203.4419C555.1143,1204.2137,554.38477,1204.7355,553.61304,1204.6073C552.84125,1204.4791,552.31946,1203.7496,552.44763,1202.9779L552.44763,1202.9779L553.9249,1194.0807C553.997,1193.6467,554.2666,1193.2709,554.6545,1193.0635L554.6545,1193.0635C557.3074,1191.6451,559.9075,1190.2634,564.37714,1185.787L564.37714,1185.787C568.9184,1181.2389,575.14386,1173.7319,576.96576,1164.3214L576.96576,1164.3214C578.78955,1154.9014,576.23395,1143.4044,569.38025,1134.6206L569.38025,1134.6206C562.53156,1125.8431,551.4098,1119.794,539.1737,1120.0283L539.1737,1120.0283C538.0025,1120.0508,536.81866,1120.1307,535.62885,1120.2661L535.62885,1120.2661C524.3288,1121.5518,512.7017,1127.8,506.31784,1136.7136L506.31784,1136.7136C499.27798,1146.543,498.49994,1159.7836,502.4669,1169.937L502.4669,1169.937C506.42807,1180.0757,515.13055,1187.1918,524.2261,1194.5854C524.56714,1194.8628,524.76013,1195.2827,524.74854,1195.722L524.74854,1195.722L524.60144,1201.2987C524.5818,1202.0425,523.9902,1202.6443,523.2469,1202.6765C522.5036,1202.7089,521.862,1202.1606,521.7779,1201.4215L521.7779,1201.4215L521.7779,1201.4214C521.68945,1200.644,522.24786,1199.9421,523.0252,1199.8538C523.80255,1199.7654,524.5044,1200.3237,524.59283,1201.1011 Z"/>
</g>
<g style="fill:rgb(9,31,100); fill-opacity:1.0; stroke-linejoin: miter">
<path d="M543.7762,1163.3446Q544.2467,1164.555,544.39795,1166.1704L544.4104,1166.2672Q544.742,1168.2926,543.61414,1168.5831L543.61414,1168.5831Q543.54614,1168.3915,543.4987,1168.0287L543.4986,1168.0287Q543.14233,1164.9861,543.77075,1163.3446 Z M534.7607,1164.2723Q534.95013,1165.2369,535.0179,1166.4043L535.0125,1166.4043Q534.6891,1168.7914,533.8598,1168.9652L533.8598,1168.9652Q532.8308,1168.8704,532.86865,1168.219Q532.935,1167.0756,534.1786,1164.9275L534.1733,1164.9275Q534.46765,1164.5868,534.7553,1164.2723 Z M531.65753,1156.9985Q531.2541,1156.9985,530.84393,1157.0868L530.8416,1157.0868Q527.6809,1157.6882,525.5311,1160.4417C525.4339,1160.5662,525.3581,1160.706,525.30707,1160.8556Q523.1856,1167.0684,524.9557,1174.3823L524.95575,1174.3823Q526.0679,1179.0355,526.6098,1180.0182L526.6098,1180.0182Q526.65814,1180.1058,526.7088,1180.183L526.70355,1180.183Q530.1152,1186.7441,530.96906,1187.7084L530.96893,1187.7084Q531.34595,1188.1342,531.80743,1188.2593L531.8075,1188.2593C531.9315,1188.2928,532.0562,1188.309,532.1789,1188.309C532.8028,1188.309,533.37427,1187.8937,533.5452,1187.2626C533.69904,1186.695,533.48505,1186.1144,533.0485,1185.7742L533.04315,1185.7742Q532.34674,1184.8998,529.16254,1178.7709C529.141,1178.7294,529.1174,1178.689,529.092,1178.65L529.09064,1178.65Q528.7339,1178.0032,527.71027,1173.7198L527.70935,1173.7158Q526.1683,1167.3481,527.9075,1162.0131L527.90216,1162.0131Q529.36426,1160.242,531.4002,1159.8645L531.4401,1159.8566Q531.5296,1159.8373,531.6233,1159.8373Q532.3779,1159.8373,533.40454,1161.0872L533.41223,1161.0964Q533.52234,1161.2281,533.62506,1161.3722L533.61975,1161.3722Q532.79956,1162.1782,531.95685,1163.1595C531.90186,1163.2236,531.85266,1163.2925,531.80994,1163.3652Q530.14813,1166.196,530.0403,1168.0549Q529.83624,1171.5717,533.81586,1171.8026L533.8159,1171.8026C533.8433,1171.8042,533.87085,1171.8049,533.89825,1171.8049C533.93713,1171.8049,533.97595,1171.8033,534.01465,1171.8002Q537.2263,1171.5347,537.8435,1166.6039C537.85394,1166.5205,537.85693,1166.4365,537.8525,1166.3527Q537.72174,1163.8962,537.0986,1162.0635L537.0932,1162.0635Q539.0853,1160.5093,540.68097,1160.5093Q541.2603,1160.5093,541.7874,1160.7142L541.78204,1160.7142Q541.8133,1160.7356,541.84424,1160.7573L541.8388,1160.7573Q541.5274,1161.3345,541.25726,1162.0128L541.256,1162.0128Q540.2179,1164.3712,540.68475,1168.3583L540.68665,1168.3738Q540.85504,1169.6855,541.4318,1170.4464L541.4319,1170.4465Q542.1931,1171.4506,543.43494,1171.4506Q543.48083,1171.4506,543.52734,1171.4492L543.5272,1171.4492Q543.6183,1171.4465,543.71,1171.438L543.76044,1171.4324Q543.8569,1171.4199,543.9468,1171.4052L543.94653,1171.4052Q547.9733,1170.746,547.22174,1165.9062L547.21875,1165.9062Q546.9245,1162.7632,545.608,1160.6849L545.60254,1160.6849Q546.1889,1160.3197,546.88324,1160.3197Q547.1184,1160.3197,547.366,1160.3616L547.36597,1160.3616Q548.7742,1160.6216,550.5731,1163.6464L550.5726,1163.6464Q552.05237,1166.304,551.8177,1168.8744L551.813,1168.8744Q551.0804,1173.0133,547.92957,1180.6365L547.9093,1180.6884Q547.081,1182.9392,543.95746,1188.8976C543.59424,1189.5905,543.86145,1190.4467,544.5544,1190.8099C544.76434,1190.92,544.98926,1190.9722,545.2109,1190.9722C545.7209,1190.9722,546.21356,1190.6959,546.46674,1190.213Q549.6419,1184.156,550.5489,1181.7188L550.54785,1181.7188Q553.8616,1173.7014,554.62463,1169.2421L554.6391,1169.132Q554.95514,1165.6708,553.0263,1162.2296L553.0082,1162.1981Q550.53937,1158.047,547.8498,1157.5701L547.8389,1157.5681Q547.26276,1157.4706,546.7264,1157.4706Q544.9515,1157.4706,543.61194,1158.5386L543.61194,1158.5386Q543.4142,1158.3934,543.2059,1158.2593C543.13916,1158.2163,543.0689,1158.1791,542.996,1158.1478Q541.87103,1157.6667,540.68414,1157.6667Q538.35223,1157.6667,535.7814,1159.5239L535.7814,1159.5239Q535.6896,1159.4038,535.5938,1159.2888L535.59375,1159.2888Q533.7125,1156.9985,531.65753,1156.9985 Z"/>
</g>
<g style="fill:rgb(9,31,100); fill-opacity:1.0; stroke-linejoin: miter">
<path d="M533.65015,1202.4237L531.8373,1202.4935Q530.10126,1202.591,528.6725,1202.7987L527.3206,1203.0342Q526.0455,1203.2972,525.0777,1203.6707Q522.45514,1204.6919,521.47473,1207.1031Q521.3124,1207.987,521.3881,1208.1702L523.1236,1212.0176L523.8057,1214.2299Q523.8629,1216.9198,524.5447,1218.8722Q525.5812,1221.6871,526.1109,1222.4136Q526.6245,1223.223,527.2954,1223.1733Q528.8731,1223.1221,534.968,1222.1831L554.5665,1205.3435Q550.4136,1204.5171,548.2398,1203.8276Q545.7971,1203.3169,544.2084,1203.0826Q542.525,1202.8351,533.65015,1202.4237"/>
</g>
<g style="fill:rgb(9,31,100); fill-opacity:1.0; stroke-linejoin: miter">
<path d="M551.09735,1203.9924L523.0414,1219.7827Q523.73004,1221.265,524.7938,1221.9951L525.0656,1222.1658L529.0218,1223.6636Q529.7113,1223.87,530.18805,1223.903Q533.62445,1223.9346,533.73505,1224.0242Q534.16235,1224.0251,536.36993,1225.0299Q540.2382,1225.4292,541.7219,1226.2493Q542.7806,1226.3558,546.7565,1225.5098Q548.98926,1225.0096,549.4738,1224.6501Q550.4133,1223.9475,551.6151,1220.7759Q551.84784,1217.7845,552.45636,1215.9156Q552.9379,1214.1338,554.83295,1211.0476Q555.0684,1210.5427,555.20483,1209.6339Q555.2952,1207.9358,551.09735,1203.9924"/>
</g>
<g style="fill:rgb(9,31,100); fill-opacity:1.0; stroke-linejoin: miter">
<path d="M551.49744,1219.0385L551.0538,1219.3248Q549.783,1220.151,549.2338,1220.5803Q549.1072,1220.6333,548.34344,1221.4431Q547.8078,1222.0464,547.54724,1222.5806Q547.4275,1222.8488,547.39136,1223.1198L547.3761,1223.3916Q547.3873,1223.9366,547.7328,1224.493Q547.9055,1224.7714,548.1618,1225.0525Q548.254,1225.1407,548.7027,1225.3982Q549.92413,1226.0065,550.98444,1225.2712Q551.3941,1225.0062,551.6702,1224.6681L553.71857,1221.8768Q553.75934,1221.802,554.05505,1221.6318L551.49744,1219.0385"/>
</g>
<g style="fill:rgb(9,31,100); fill-opacity:1.0; stroke-linejoin: miter">
<path d="M528.0679,1216.7035L527.94885,1216.705Q527.7027,1216.6423,526.3624,1217.0422Q525.613,1217.3112,525.12665,1217.7902Q524.3124,1218.8357,523.9359,1219.8728L523.7751,1220.3907Q523.6416,1220.9082,523.6176,1221.4236Q523.59357,1221.939,523.679,1222.4521Q523.73553,1222.7537,523.7983,1223.0034Q523.98645,1223.7528,524.2304,1224.0367Q525.8241,1225.5092,526.43304,1225.9288L526.77563,1226.1371Q527.0869,1226.2743,527.3525,1226.2716Q527.5988,1226.2646,527.7809,1226.2129Q529.87805,1225.422,530.3923,1225.3375L529.10236,1216.786Q528.4025,1216.6948,528.0679,1216.7035"/>
</g>
</g>
<g id="layer4">
</g>
</svg>