<?xml version="1.0" encoding="utf-8"?>
<svg xmlns="http://www.w3.org/2000/svg" xmlns:xlink="http://www.w3.org/1999/xlink" version= "1.1" width="126px" height="126px" viewBox="477 1113 126 126">
<g id="layer1">
</g>
<g id="layer2">
<g style="fill:rgb(255,255,255); fill-opacity:1.0; stroke-linejoin: miter">
<path d="M525.1929,1117.2744L514.81726,1118.8702L509.07843,1121.9467L507.66626,1125.571L507.81247,1129.4878L506.89523,1226.6658L509.65057,1230.3767Q513.2525,1234.2667,515.7802,1235.2819L562.8543,1235.4373L569.1007,1232.4535L571.49835,1223.563L572.151,1154.2296L572.04236,1131.8281L570.83704,1122.355L567.4634,1118.0677L525.1929,1117.2744"/>
</g>
</g>
<g id="layer3">
<g style="fill:rgb(9,31,100); fill-opacity:1.0; stroke-linejoin: miter">
<path d="M574.89496,1126.7334L574.89496,1126.7334L573.3354,1225.048C573.33356,1225.1615,573.3222,1225.2748,573.30145,1225.3865L573.30145,1225.3865C572.9176,1227.449,572.47955,1229.8834,571.48676,1231.9001L571.4867,1231.9003C571.1412,1232.602,570.7158,1233.2839,570.18,1233.905L570.18,1233.905C568.132,1236.279,564.8291,1237.276,562.32245,1238.0801C562.11786,1238.1458,561.90405,1238.1785,561.68915,1238.1769L561.68915,1238.1769L515.7914,1237.8492C515.5083,1237.8472,515.2288,1237.7859,514.97095,1237.6692L514.97144,1237.6694L514.9431,1237.6566L514.94257,1237.6564C512.54565,1236.5723,509.47104,1235.2314,507.5836,1232.5092L507.5836,1232.5092C505.74637,1229.8593,505.18967,1226.0898,504.69897,1223.0077C504.68057,1222.8921,504.6722,1222.775,504.674,1222.658L504.674,1222.658L506.13098,1127.9226C506.1322,1127.8416,506.13834,1127.7605,506.14932,1127.68L506.14932,1127.68C506.44214,1125.5328,506.7766,1122.921,507.79373,1120.8547L507.79373,1120.8547C508.11673,1120.1986,508.52274,1119.5627,509.043,1118.9916L509.043,1118.9916C511.17166,1116.655,514.72974,1116.0326,517.27234,1115.527C517.4052,1115.5006,517.54034,1115.4875,517.6758,1115.4882L517.6758,1115.4882L562.5041,1115.6722C562.6379,1115.6729,562.77136,1115.6866,562.90247,1115.7135L562.9026,1115.7135L562.92474,1115.718L562.9246,1115.718C565.9434,1116.3367,570.1563,1117.0938,572.4063,1120.1775L572.40625,1120.1775C574.3765,1122.8777,574.57495,1127.0543,574.6561,1128.3677L574.6561,1128.3677C574.6645,1128.5029,574.67114,1128.6094,574.67706,1128.6912L574.67706,1128.6912C574.6844,1128.7921,574.6895,1128.8381,574.69073,1128.8478L574.69073,1128.8478C574.938,1130.7874,575.0631,1127.0306,572.5694,1127.2081L572.5657,1127.2084C571.306,1127.3003,570.86206,1128.4099,570.9039,1128.3252L570.90356,1128.3258C570.7318,1128.6747,570.7143,1129.0103,570.7354,1128.8458L570.7354,1128.8457C570.76526,1128.6141,570.8023,1127.7234,570.84503,1126.6226C570.88806,1125.5137,571.81537,1124.6458,572.92474,1124.6761C574.0341,1124.7064,574.9126,1125.6237,574.89496,1126.7334L574.89496,1126.7334 M570.84375,1126.6691L574.8937,1126.7798C574.8567,1127.7332,574.8139,1128.8972,574.754,1129.3628L574.754,1129.3627C574.75977,1129.3182,574.72644,1129.7338,574.5387,1130.1152L574.5384,1130.1158C574.57495,1130.0417,574.12555,1131.157,572.86066,1131.2494L572.857,1131.2496C570.3425,1131.4286,570.4463,1127.5933,570.6715,1129.3601L570.6715,1129.3601C570.6568,1129.2446,570.64545,1129.1144,570.63605,1128.9852L570.63605,1128.9852C570.6282,1128.8776,570.62,1128.7445,570.6121,1128.6178L570.6121,1128.6177C570.5119,1126.9967,570.27496,1124.1304,569.1332,1122.5656L569.1332,1122.5656C567.99695,1121.0083,565.6548,1120.4135,562.1112,1119.6873L562.1111,1119.6873L562.0889,1119.6827L562.4874,1119.7239L517.6591,1119.5398L518.06256,1119.501C515.0635,1120.0973,513.0798,1120.5769,512.03815,1121.7202L512.03815,1121.7202C511.8203,1121.9594,511.61685,1122.2623,511.4289,1122.6442L511.4289,1122.6442C510.76233,1123.9983,510.48392,1125.8807,510.16388,1128.2275L510.18222,1127.985L508.72528,1222.7203L508.70032,1222.3706C509.24072,1225.7651,509.7151,1228.4724,510.9133,1230.2006L510.9133,1230.2006C512.0498,1231.8397,513.98865,1232.778,516.61237,1233.9647L516.6118,1233.9646L516.6402,1233.9773L515.8203,1233.7976L561.7181,1234.1252L561.0848,1234.222C563.9196,1233.3127,565.958,1232.5962,567.11206,1231.2584L567.11206,1231.2584C567.3826,1230.9448,567.6279,1230.5651,567.8516,1230.1107L567.8516,1230.1107C568.5498,1228.6924,568.90686,1226.855,569.3181,1224.6451L569.2842,1224.9836L570.84375,1126.6691 Z"/>
</g>
<g style="fill:rgb(9,31,100); fill-opacity:1.0; stroke-linejoin: miter">
<path d="M564.9134,1127.7981L564.9134,1127.7981L564.2416,1206.278C564.232,1207.3948,563.3203,1208.2932,562.2035,1208.2865L562.2035,1208.2865L517.31116,1208.0142C516.7729,1208.0109,516.25806,1207.7935,515.88025,1207.41C515.5025,1207.0266,515.29285,1206.5085,515.29767,1205.9702L515.29767,1205.9702L516.0008,1127.084C516.0056,1126.5446,516.2254,1126.0293,516.61145,1125.6525C516.99744,1125.2756,517.5178,1125.0682,518.05725,1125.0764L518.05725,1125.0764L562.9183,1125.7551C564.0318,1125.772,564.923,1126.6844,564.9134,1127.7981L564.9134,1127.7981 M560.8618,1127.7634L562.857,1129.8064L517.996,1129.1277L520.05237,1127.1201L519.34924,1206.0063L517.33575,1203.9625L562.228,1204.2349L560.18994,1206.2433L560.8618,1127.7634 Z"/>
</g>
<g style="fill:rgb(9,31,100); fill-opacity:1.0; stroke-linejoin: miter">
<path d="M562.6431,1223.1847L562.6431,1223.1847L562.6431,1223.1847L562.6459,1223.1847L550.94446,1223.2007C549.82556,1223.2021,548.91736,1222.2964,548.91583,1221.1775C548.9143,1220.0587,549.82007,1219.1504,550.9389,1219.1489L550.9389,1219.1489L562.6404,1219.133L562.6431,1219.133L562.6431,1219.133C563.762,1219.133,564.669,1220.04,564.669,1221.1589C564.669,1222.2777,563.762,1223.1848,562.6431,1223.1847 Z"/>
</g>
<g style="fill:rgb(9,31,100); fill-opacity:1.0; stroke-linejoin: miter">
<path d="M526.89856,1223.1973L526.89856,1223.1973L526.89856,1223.1973L527.086,1223.2126L516.7178,1222.8435C515.5996,1222.8036,514.72546,1221.8649,514.76526,1220.7468C514.8051,1219.6287,515.74384,1218.7545,516.86194,1218.7943L516.86194,1218.7943L527.23016,1219.1635C527.2929,1219.1656,527.3554,1219.1709,527.41766,1219.1788L527.41766,1219.1788L527.41766,1219.1788C528.5273,1219.3223,529.3106,1220.338,529.1673,1221.4476C529.0239,1222.5573,528.00824,1223.3406,526.89856,1223.1973 Z"/>
</g>
<g style="fill:rgb(9,31,100); fill-opacity:1.0; stroke-linejoin: miter">
<path d="M541.1111,1227.1346L541.1111,1227.1346C537.7562,1228.1587,534.2065,1226.2692,533.1825,1222.9143L533.1825,1222.9143C532.1585,1219.5596,534.04803,1216.0098,537.40283,1214.9858L537.40283,1214.9858C540.7577,1213.9618,544.30743,1215.8513,545.3314,1219.2062L545.3314,1219.2062C546.3554,1222.5609,544.4659,1226.1107,541.1111,1227.1346L541.1111,1227.1346 M539.9282,1223.2594L539.9282,1223.2594C541.1428,1222.8887,541.8269,1221.6035,541.4562,1220.3889L541.4562,1220.3889C541.08545,1219.1743,539.8003,1218.4902,538.5857,1218.861L538.5857,1218.861C537.3711,1219.2317,536.687,1220.517,537.05774,1221.7314L537.05774,1221.7314C537.42847,1222.946,538.7136,1223.6302,539.9282,1223.2594 Z"/>
</g>
<g style="fill:rgb(9,31,100); fill-opacity:1.0; stroke-linejoin: miter">
<path d="M566.3918,1195.614L566.3918,1195.614L566.3918,1195.614L566.3918,1195.614L566.3918,1195.614L566.3918,1195.614L566.3918,1195.614L566.3918,1195.614L566.3918,1195.614L566.3918,1195.614 M562.51654,1196.7969L562.51654,1196.7969L562.51654,1196.7969L562.51654,1196.7969L562.51654,1196.7969L562.51654,1196.7969L562.51654,1196.7969L562.51654,1196.7969L562.51654,1196.7969 Z"/>
</g>
</g>
</svg>