<?xml version="1.0" encoding="utf-8"?>
<svg xmlns="http://www.w3.org/2000/svg" xmlns:xlink="http://www.w3.org/1999/xlink" version= "1.1" width="127px" height="126px" viewBox="476 1113 127 126">
<g id="layer1">
<g style="fill:rgb(9,31,100); fill-opacity:1.0; stroke-linejoin: miter">
<path d="M553.0235,1158.5222L546.6148,1150.792L542.13226,1146.2546L540.90393,1147.3539L537.21326,1150.2189L536.80896,1151.7737L540.2772,1155.4868L541.90533,1157.8737L546.07635,1162.1763L547.61237,1163.5656L553.0235,1158.5222"/>
</g>
<g style="fill:rgb(9,31,100); fill-opacity:1.0; stroke-linejoin: miter">
<path d="M571.961,1142.7002L576.0191,1141.0438L577.37036,1140.7058L579.0147,1143.4106L580.37726,1145.8062L584.94464,1152.9266L582.4454,1154.7019L578.8535,1156.3246L571.961,1142.7002"/>
</g>
</g>
<g id="layer2">
<g style="fill:rgb(255,255,255); fill-opacity:1.0; stroke-linejoin: miter">
<path d="M530.35675,1179.6665L540.7154,1191.8102L536.2807,1196.6874L498.92957,1228.5428L489.44443,1234.8846L485.4745,1236.4188L482.82852,1235.7183L483.1623,1231.9492L484.18982,1230.44L486.05615,1230.6787Q487.55908,1229.9816,489.67236,1229.3191Q492.16953,1227.2303,492.8921,1226.1853L493.98923,1224.4314L494.4074,1222.2773L492.62656,1221.2592L491.28384,1221.0642L487.74146,1222.9503L486.29877,1224.0812L485.21622,1225.7338L483.6235,1229.7365L480.00305,1232.7314L478.65674,1231.9803L478.89258,1227.0184L481.3642,1222.038L530.35675,1179.6665"/>
</g>
<g style="fill:rgb(255,255,255); fill-opacity:1.0; stroke-linejoin: miter">
<path d="M484.7473,1230.7192L484.06735,1229.6294Q481.1354,1230.0986,480.36206,1230.3481Q479.57156,1230.5415,479.07327,1230.9822Q478.8179,1231.2291,478.68375,1231.7062L479.56305,1234.1145L481.35275,1235.4816L482.87766,1235.7759L484.02814,1235.3376L484.7473,1230.7192"/>
</g>
<g style="fill:rgb(255,255,255); fill-opacity:1.0; stroke-linejoin: miter">
<path d="M531.68787,1180.2051L538.42505,1173.9553Q540.774,1171.8046,541.5152,1170.4443L541.33435,1166.6095L540.0816,1163.9768L539.55505,1161.7902L539.78156,1159.5941L540.6145,1157.176L543.80743,1159.1299L546.521,1163.2872L548.0024,1163.163L553.7428,1158.1975L548.55945,1152.5784L545.5076,1148.5151L544.5894,1146.0444Q545.5998,1142.0192,546.29675,1140.0769L549.6616,1134.7098L555.5639,1130.9882Q560.1022,1129.4735,561.4199,1130.854L574.7414,1141.5667L572.28906,1142.54L573.54016,1144.4526L577.8752,1152.554L580.23895,1155.8263L579.7231,1157.3644L577.5431,1159.0067L539.11273,1191.5848L531.68787,1180.2051"/>
</g>
<g style="fill:rgb(255,255,255); fill-opacity:1.0; stroke-linejoin: miter">
<path d="M537.9617,1152.9945L534.13116,1155.407L529.404,1161.0669L528.0,1164.0065L527.6893,1166.1053L528.7731,1167.8475L529.7402,1168.792L532.71704,1170.1115L535.0233,1170.3411L537.08435,1169.0123L539.7498,1166.8317L540.63043,1165.7308L540.04126,1163.6514L539.9443,1159.2131L540.5362,1157.8208L541.82227,1158.1378L537.9617,1152.9945"/>
</g>
<g style="fill:rgb(255,255,255); fill-opacity:1.0; stroke-linejoin: miter">
<path d="M571.8878,1139.3657L573.07666,1138.3429Q576.98645,1134.9681,578.73016,1133.6794Q580.4529,1132.4138,581.9114,1131.7058L583.45355,1133.5815L593.6949,1144.6404L597.1248,1142.6676L597.3671,1141.3438Q593.4752,1128.2589,592.56714,1125.684L589.2294,1121.8046L586.77057,1120.4756L582.82855,1119.051L580.2391,1118.4288L577.9453,1118.7164L562.7692,1131.7587L571.8878,1139.3657"/>
</g>
</g>
<g id="layer3">
<g style="fill:rgb(255,255,255); fill-opacity:1.0; stroke-linejoin: miter">
<path d="M509.09897,1086.8314L509.09894,1086.8315L509.09894,1086.8317L509.09897,1086.8314"/>
</g>
<g style="fill:rgb(9,31,100); fill-opacity:1.0; stroke-linejoin: miter">
<path d="M540.4156,1192.4755L540.4156,1192.4755L529.84143,1179.7278L530.7623,1179.8026L487.1572,1217.7437L487.17722,1217.7255C483.738,1220.9811,480.4831,1224.0833,479.32205,1227.2797L479.32205,1227.2797C478.1637,1230.4686,479.11966,1233.6343,480.91132,1234.8L480.91132,1234.8C481.1422,1234.9503,481.3923,1235.0717,481.6605,1235.1663L481.6605,1235.1663C483.4945,1235.8126,486.12207,1235.184,488.748,1234.0166L488.748,1234.0166C491.71368,1232.6984,494.4293,1230.8082,497.20438,1228.8743L497.15222,1228.9147L497.21704,1228.8589L497.21698,1228.859L522.6617,1206.9427L522.6615,1206.9429L540.49097,1191.5741L540.4156,1192.4755 M541.4096,1191.651C541.6343,1191.9218,541.6007,1192.3226,541.3342,1192.5524L541.3342,1192.5524L523.5047,1207.9211L523.5045,1207.9213L498.05984,1229.8375L498.05975,1229.8375L497.99496,1229.8934C497.9783,1229.9077,497.96088,1229.9213,497.9428,1229.9338L497.9428,1229.9338C495.18616,1231.855,492.37024,1233.8198,489.2726,1235.1968L489.2726,1235.1968C486.6257,1236.3734,483.57852,1237.2115,481.2312,1236.3843L481.2312,1236.3843C480.87262,1236.2579,480.5294,1236.0923,480.20697,1235.8826L480.20697,1235.8826C477.7544,1234.2869,476.81668,1230.3942,478.10815,1226.8387L478.10815,1226.8387C479.39688,1223.2908,482.9353,1219.9625,486.2894,1216.7876C486.29593,1216.7814,486.3026,1216.7753,486.30942,1216.7694L486.30942,1216.7694L529.91455,1178.8284C530.0458,1178.7141,530.21747,1178.6577,530.3908,1178.6719C530.5641,1178.6859,530.7244,1178.7694,530.83545,1178.9032L530.83545,1178.9032L541.4096,1191.651 Z"/>
</g>
<g style="fill:rgb(9,31,100); fill-opacity:1.0; stroke-linejoin: miter">
<path d="M491.77042,1228.6781L491.77042,1228.6781C489.34836,1231.0989,485.81842,1232.5834,484.06656,1230.8306L484.06656,1230.8306C482.3147,1229.0778,483.80103,1225.5486,486.2231,1223.1278L486.2231,1223.1278C488.64517,1220.707,492.1751,1219.2227,493.92697,1220.9755L493.92697,1220.9755C495.67883,1222.7283,494.1925,1226.2573,491.77042,1228.6781L491.77042,1228.6781 M490.85745,1227.7646L490.85745,1227.7646C493.37662,1225.2468,493.8211,1222.6964,493.0135,1221.8884L493.0135,1221.8884C492.2059,1221.0803,489.65527,1221.5234,487.13608,1224.0413L487.13608,1224.0413C484.6169,1226.5591,484.17242,1229.1095,484.98004,1229.9176L484.98004,1229.9176C485.78763,1230.7256,488.33826,1230.2825,490.85745,1227.7646 Z"/>
</g>
<g style="fill:rgb(9,31,100); fill-opacity:1.0; stroke-linejoin: miter">
<path d="M507.18756,1194.5654L507.18756,1194.5654L507.18756,1194.5654L507.18756,1194.5654L507.18756,1194.5654L507.18756,1194.5654L507.18756,1194.5654L507.18756,1194.5654L507.18756,1194.5654L507.18756,1194.5654 M506.2741,1195.4785L506.2741,1195.4785L506.2741,1195.4785L506.2741,1195.4785L506.2741,1195.4785L506.2741,1195.4785L506.2741,1195.4785L506.2741,1195.4785L506.2741,1195.4785 Z"/>
</g>
<g style="fill:rgb(9,31,100); fill-opacity:1.0; stroke-linejoin: miter">
<path d="M532.03235,1180.7148L532.03235,1180.7148L532.03235,1180.7148C531.7525,1180.932,531.35,1180.8832,531.1302,1180.6055C530.91034,1180.3276,530.95526,1179.9247,531.2309,1179.7021L531.2309,1179.7021C535.5756,1176.1946,539.6745,1172.8615,540.82434,1170.3274L540.82434,1170.3274C541.59753,1168.6234,540.99414,1167.284,540.26025,1165.7229L540.26025,1165.7229C540.0081,1165.1866,539.73676,1164.6116,539.54736,1164.0208L539.54736,1164.0208C538.817,1161.7416,539.3461,1159.3668,539.8134,1157.2062C539.8644,1156.9706,540.04224,1156.783,540.2748,1156.7196C540.50726,1156.6562,540.75574,1156.7277,540.9191,1156.9048L540.9191,1156.9048L547.6114,1164.157L546.7039,1164.1157L553.64636,1157.8431L553.5772,1158.7285L544.1586,1147.086C544.04156,1146.9413,543.9926,1146.7529,544.0244,1146.5696L544.0244,1146.5696C544.272,1145.1422,544.52527,1143.6838,545.45123,1141.2812L545.45123,1141.2812C546.3623,1138.917,547.9733,1135.5043,550.57654,1133.3269L550.57654,1133.3269C553.18115,1131.1483,556.7161,1130.2683,560.0579,1129.4248C560.25415,1129.3752,560.4622,1129.4205,560.62006,1129.5472L560.62006,1129.5472L574.5168,1140.6968C574.795,1140.9199,574.83954,1141.3263,574.6164,1141.6045C574.3932,1141.8827,573.98676,1141.9272,573.7086,1141.7041L573.7086,1141.7041L559.8119,1130.5546L560.374,1130.677C556.96094,1131.5386,553.741,1132.3636,551.40515,1134.3175L551.40515,1134.3175C549.0679,1136.2725,547.55286,1139.4193,546.6563,1141.7456L546.6563,1141.7456C545.77466,1144.0332,545.53864,1145.3965,545.29694,1146.7902L545.1627,1146.2737L554.5813,1157.9161C554.797,1158.1829,554.76666,1158.5715,554.51215,1158.8015L554.51215,1158.8015L547.56976,1165.074C547.30707,1165.3113,546.90234,1165.293,546.6623,1165.0328L546.6623,1165.0328L539.97003,1157.7805L541.07574,1157.4791C540.5924,1159.7139,540.1709,1161.7345,540.7773,1163.6266L540.7773,1163.6266C540.9366,1164.1238,541.1698,1164.622,541.429,1165.1735L541.429,1165.1735C542.14404,1166.6943,543.04596,1168.5569,542.0004,1170.8611L542.0004,1170.8611C540.6896,1173.75,536.243,1177.3157,532.0421,1180.707L531.24066,1179.6945L531.24066,1179.6945C531.52246,1179.4758,531.9281,1179.527,532.1467,1179.8087C532.36536,1180.0906,532.31415,1180.4962,532.03235,1180.7148 Z"/>
</g>
<g style="fill:rgb(9,31,100); fill-opacity:1.0; stroke-linejoin: miter">
<path d="M540.72,1191.5442L540.72,1191.5442L540.72,1191.5442C540.43146,1191.708,540.06573,1191.6265,539.8741,1191.3557C539.6824,1191.085,539.7271,1190.7129,539.97754,1190.4952L539.97754,1190.4952L580.1437,1155.5834L580.01166,1156.3998L572.0002,1142.8671C571.90967,1142.7141,571.88617,1142.5306,571.93524,1142.3597C571.9844,1142.189,572.1017,1142.0459,572.25964,1141.9644L572.25964,1141.9644L576.9003,1139.5682C577.20026,1139.4135,577.56885,1139.5156,577.7461,1139.8029L577.7461,1139.8029L585.58624,1152.5044C585.7687,1152.7999,585.68463,1153.1868,585.39606,1153.3801L585.39606,1153.3801L580.9698,1156.3444C580.67346,1156.5428,580.2724,1156.4635,580.0739,1156.1671C579.8755,1155.8708,579.95483,1155.4697,580.25116,1155.2712L580.25116,1155.2712L584.6774,1152.307L584.48724,1153.1827L576.6471,1140.4812L577.49286,1140.7158L572.8521,1143.1119L573.1116,1142.2091L581.123,1155.7418C581.28186,1156.0101,581.22626,1156.3536,580.99097,1156.5582L580.99097,1156.5582L540.82477,1191.47L540.08234,1190.4211L540.08234,1190.4211C540.39246,1190.245,540.7866,1190.3536,540.9627,1190.6638C541.1388,1190.974,541.0301,1191.3682,540.72,1191.5442 Z"/>
</g>
<g style="fill:rgb(9,31,100); fill-opacity:1.0; stroke-linejoin: miter">
<path d="M571.9036,1139.7053L571.9036,1139.7053L571.9036,1139.7053C571.62964,1139.7025,571.3873,1139.527,571.2991,1139.2677C571.2108,1139.0083,571.2958,1138.7214,571.5111,1138.5521L571.5111,1138.5521L581.24915,1130.892C581.5185,1130.6802,581.9065,1130.7156,582.133,1130.9728L582.133,1130.9728L594.45703,1144.9663L593.5717,1144.8867L597.27765,1141.9541L597.05286,1142.621C595.59344,1136.9304,594.15564,1131.3352,592.32043,1127.4952L592.32043,1127.4952C590.50494,1123.6965,588.3175,1121.6617,585.9945,1120.5323L585.9945,1120.5323C583.6429,1119.389,581.09766,1119.1411,578.41565,1118.8868L578.89435,1118.7365L563.5307,1131.7699C563.2587,1132.0006,562.85126,1131.9672,562.62054,1131.6953C562.38983,1131.4233,562.4233,1131.0157,562.6952,1130.785L562.6952,1130.785L578.05884,1117.7516C578.19165,1117.6389,578.36426,1117.5847,578.53754,1117.6011L578.53754,1117.6011C581.1822,1117.8518,583.9636,1118.109,586.5592,1119.3708L586.5592,1119.3708C589.18353,1120.6467,591.56396,1122.9174,593.4857,1126.9384L593.4857,1126.9384C595.38776,1130.9181,596.8566,1136.6567,598.3039,1142.3002C598.36725,1142.5472,598.2792,1142.8086,598.0791,1142.9669L598.0791,1142.9669L594.3731,1145.8995C594.1038,1146.1127,593.7148,1146.0776,593.4878,1145.82L593.4878,1145.82L581.16376,1131.8263L582.0476,1131.9071L572.30963,1139.5671L571.9172,1138.414L571.9172,1138.414C572.2738,1138.4177,572.5599,1138.7098,572.5561,1139.0664C572.55237,1139.423,572.26025,1139.7091,571.9036,1139.7053 Z"/>
</g>
<g style="fill:rgb(9,31,100); fill-opacity:1.0; stroke-linejoin: miter">
<path d="M553.7698,1158.5979L553.7698,1158.5979L552.06744,1158.5347C551.8813,1158.5277,551.7072,1158.4408,551.5899,1158.2961L551.5899,1158.2961L541.729,1146.1401L542.6462,1146.2274L536.7723,1151.1686L536.8437,1150.2505L547.8654,1162.9156L546.963,1162.845L553.3785,1157.458L553.7698,1158.5979 M553.8177,1157.3073C554.0846,1157.3173,554.3178,1157.4904,554.40454,1157.7429C554.4912,1157.9955,554.4135,1158.2754,554.209,1158.4471L554.209,1158.4471L547.7935,1163.8341C547.5238,1164.0605,547.1223,1164.0292,546.8911,1163.7634L546.8911,1163.7634L535.86945,1151.0983C535.7558,1150.9677,535.69934,1150.7969,535.71277,1150.6243C535.7262,1150.4517,535.8084,1150.2916,535.9409,1150.1802L535.9409,1150.1802L541.8148,1145.2391C541.9474,1145.1276,542.11926,1145.074,542.29175,1145.0905C542.46423,1145.1068,542.62286,1145.1919,542.732,1145.3264L542.732,1145.3264L552.5929,1157.4825L552.11536,1157.244L553.8177,1157.3073 Z"/>
</g>
<g style="fill:rgb(9,31,100); fill-opacity:1.0; stroke-linejoin: miter">
<path d="M537.93964,1153.5515L537.93964,1153.5515L537.93964,1153.5515L537.9762,1153.5232C534.05286,1156.785,530.31067,1159.912,528.9061,1162.5332L528.9061,1162.5332C527.7098,1164.766,528.262,1166.5983,529.35614,1167.8602L529.35614,1167.8602C529.475,1167.9972,529.6005,1168.1278,529.7315,1168.2515L529.7315,1168.2515C531.0889,1169.5334,532.96375,1170.022,534.73706,1169.461L534.73706,1169.461C536.57465,1168.8799,538.3683,1167.1771,540.31696,1165.3054C540.57416,1165.0583,540.983,1165.0665,541.23004,1165.3237C541.47705,1165.5809,541.4689,1165.9897,541.2116,1166.2368L541.2116,1166.2368C539.3405,1168.034,537.3144,1170.0005,535.1265,1170.6924L535.1265,1170.6924C532.8744,1171.4048,530.518,1170.7706,528.8448,1169.1904L528.8447,1169.1904C528.6836,1169.0382,528.5282,1168.8767,528.3804,1168.7063L528.3804,1168.7063C526.9752,1167.0857,526.29083,1164.6796,527.76776,1161.9232L527.76776,1161.9232C529.3218,1159.0231,533.3268,1155.7091,537.1506,1152.5302C537.1624,1152.5203,537.1746,1152.5109,537.18713,1152.5018L537.18713,1152.5018L537.1872,1152.5018C537.47705,1152.2941,537.88043,1152.3606,538.08826,1152.6504C538.296,1152.9403,538.2295,1153.3436,537.93964,1153.5515 Z"/>
</g>
</g>
</svg>