<?xml version="1.0" encoding="utf-8"?>
<svg xmlns="http://www.w3.org/2000/svg" xmlns:xlink="http://www.w3.org/1999/xlink" version= "1.1" width="127px" height="126px" viewBox="476 1113 127 126">
<g id="layer1">
<g style="fill:rgb(9,31,100); fill-opacity:1.0; stroke-linejoin: miter">
<path d="M563.1369,1184.9169L559.02167,1189.6422Q550.73486,1182.9437,546.7867,1182.0887Q542.0032,1180.7986,537.22174,1183.3069Q536.1858,1183.7579,534.403,1185.6133Q514.9802,1211.7484,503.37738,1223.0756Q498.26492,1227.6139,494.394,1228.7122Q489.92157,1230.4133,487.75424,1228.7539Q485.98126,1226.5859,487.9382,1221.454Q489.1929,1217.825,493.69193,1212.2926Q498.74762,1206.1577,511.44278,1194.1173Q522.8771,1183.283,527.6649,1180.2117Q528.88513,1179.03,529.8719,1176.9579Q532.0146,1171.8696,530.40515,1167.8765Q528.04736,1161.326,522.8258,1155.9138L527.2207,1151.0654L563.1369,1184.9169"/>
</g>
<g style="fill:rgb(9,31,100); fill-opacity:1.0; stroke-linejoin: miter">
<path d="M570.92993,1176.5354L570.92993,1176.5354L564.1966,1184.2303Q545.94446,1167.1567,527.69226,1150.083Q531.4587,1146.2434,535.2251,1142.4038L570.92993,1176.5354"/>
</g>
<g style="fill:rgb(9,31,100); fill-opacity:1.0; stroke-linejoin: miter">
<path d="M573.89307,1173.5284L573.89307,1173.5284L571.79114,1175.5787Q553.73956,1158.6985,535.6879,1141.8181Q536.7832,1140.7583,537.8785,1139.6986L573.89307,1173.5284"/>
</g>
<g style="fill:rgb(9,31,100); fill-opacity:1.0; stroke-linejoin: miter">
<path d="M574.3312,1172.5219L538.7243,1139.3846L558.70245,1114.1499L568.30475,1121.6501L558.43225,1134.0547L572.0011,1122.9434L594.5243,1145.27L578.26996,1160.6033Q574.4493,1164.3282,574.45667,1164.3925L573.71204,1165.3433L574.75256,1164.7151Q574.8235,1164.7223,578.8895,1161.4834L595.6203,1147.6969L598.85315,1150.8066L574.3312,1172.5219"/>
</g>
</g>
<g id="layer2">
</g>
<g id="layer3">
</g>
</svg>