<?xml version="1.0" encoding="utf-8"?>
<svg xmlns="http://www.w3.org/2000/svg" xmlns:xlink="http://www.w3.org/1999/xlink" version= "1.1" width="127px" height="126px" viewBox="476 1113 127 126">
<g id="layer1">
<g style="fill:rgb(255,255,255); fill-opacity:1.0; stroke-linejoin: miter">
<path d="M517.17596,1155.9712C516.24426,1156.0183,515.5275,1156.812,515.5747,1157.7434Q515.65424,1159.3102,515.37805,1160.5023C515.36163,1160.5726,515.3498,1160.6442,515.34283,1160.7163L515.34235,1160.7163Q515.25824,1161.0396,514.793,1162.0234L514.7926,1162.0234Q514.57214,1162.3995,514.2885,1162.7134L514.2885,1162.7134L510.43756,1166.9757C510.4057,1167.0109,510.37543,1167.0475,510.3468,1167.0851Q509.65833,1167.9896,509.40942,1168.5015L509.40942,1168.5015Q509.21783,1168.8966,509.1764,1169.2719L509.17603,1169.2719Q508.8553,1170.7173,509.63824,1172.063L509.63788,1172.063Q509.74194,1172.2836,509.90656,1172.5001L509.90656,1172.5001Q510.45343,1173.2201,512.91925,1175.3645C513.25543,1175.657,513.6851,1175.7985,514.1133,1175.7769C514.3359,1175.7654,514.5581,1175.7101,514.76636,1175.6088C515.37537,1175.3124,515.74854,1174.6809,515.71423,1174.0045L515.50854,1169.9479C515.4617,1169.0217,514.67694,1168.3076,513.75214,1168.3458L513.7518,1168.3458L516.79474,1164.9779Q517.34705,1164.3668,517.7611,1163.6367C517.7814,1163.6012,517.80023,1163.5648,517.8178,1163.528Q518.49426,1162.1034,518.64655,1161.4208L518.64655,1161.4208Q518.6768,1161.2854,518.6931,1161.1583L518.69257,1161.1583Q519.04834,1159.5465,518.9483,1157.5725C518.901,1156.641,518.1075,1155.9238,517.17596,1155.9712 Z"/>
</g>
<g style="fill:rgb(255,255,255); fill-opacity:1.0; stroke-linejoin: miter">
<path d="M525.083,1151.5037C524.1673,1151.5498,523.45306,1152.3203,523.48083,1153.241Q523.6338,1158.2903,520.8614,1163.1116C520.8408,1163.1473,520.8216,1163.1838,520.80383,1163.2208Q520.27075,1164.3278,518.92267,1166.127L518.92224,1166.127L512.7721,1172.9603C512.1481,1173.6534,512.2042,1174.7213,512.8977,1175.3455C513.2434,1175.6567,513.68225,1175.7985,514.1129,1175.7769C514.5457,1175.7548,514.97,1175.5674,515.2828,1175.2198L521.4859,1168.3279C521.51904,1168.291,521.5506,1168.2527,521.58044,1168.2133Q523.127,1166.1564,523.8166,1164.7496L523.8161,1164.7496Q527.0382,1159.1202,526.85724,1153.1389C526.82904,1152.2065,526.0504,1151.4738,525.1181,1151.5021C525.1064,1151.5024,525.09467,1151.503,525.083,1151.5037 Z"/>
</g>
<g style="fill:rgb(255,255,255); fill-opacity:1.0; stroke-linejoin: miter">
<path d="M525.507,1156.1162C525.41656,1156.272,525.35034,1156.4434,525.313,1156.6249C525.1925,1157.2107,525.3906,1157.8164,525.834,1158.2175L525.834,1158.2175Q524.7251,1157.215,525.50653,1156.1162 Z M529.1419,1151.2974C529.02325,1151.3033,528.9033,1151.322,528.784,1151.3546C527.9117,1151.591,527.3851,1152.4689,527.575,1153.3419L527.5745,1153.3419Q527.5775,1153.6892,527.30133,1154.6703L527.3008,1154.6703Q527.18823,1154.8888,527.0183,1155.0394L527.0182,1155.0394Q526.79156,1155.2404,526.4216,1155.3667C526.35474,1155.3894,526.29,1155.4161,526.2274,1155.4467L526.2268,1155.4467Q525.6042,1155.5541,523.5607,1155.7476L523.5602,1155.7476Q523.4469,1155.7539,523.32465,1155.7709L523.3247,1155.7709Q522.6044,1155.8687,520.93854,1156.486C520.92444,1156.4912,520.9105,1156.4965,520.8966,1156.5021Q518.83997,1157.3264,516.80756,1159.9265L516.80707,1159.9268L513.87805,1163.2208C513.8396,1163.2642,513.80334,1163.3093,513.7696,1163.3562Q513.2898,1164.0225,512.9479,1164.8025L512.9479,1164.8025Q511.97778,1167.0164,512.135,1170.119C512.18225,1171.0504,512.9758,1171.7676,513.9072,1171.7203C514.8389,1171.6731,515.5558,1170.8794,515.50854,1169.9479Q515.39166,1167.6416,516.0417,1166.1581L516.0417,1166.1581Q516.2224,1165.7458,516.4635,1165.3972L516.463,1165.3972L519.3711,1162.1265C519.39575,1162.0986,519.41956,1162.0701,519.4424,1162.0406Q520.9159,1160.1453,522.13135,1159.646L522.13086,1159.646Q523.4031,1159.1757,523.76447,1159.1199L523.764,1159.1199C523.78796,1159.1185,523.8118,1159.1168,523.83575,1159.1146Q526.54645,1158.8588,527.232,1158.6859L527.2319,1158.6859Q527.5626,1158.6024,527.8215,1158.4484L527.8209,1158.4485Q528.6391,1158.1168,529.2591,1157.5667L529.2591,1157.5667Q530.0173,1156.8947,530.4361,1155.9387C530.4663,1155.87,530.49164,1155.7997,530.5124,1155.7277Q530.995,1154.0491,530.94653,1153.1316L530.94653,1153.1316Q530.92993,1152.8163,530.8557,1152.5426L530.8557,1152.5424C530.64417,1151.7618,529.91815,1151.258,529.1419,1151.2974 Z"/>
</g>
<g style="fill:rgb(255,255,255); fill-opacity:1.0; stroke-linejoin: miter">
<path d="M525.2889,1155.56C524.87964,1155.5808,524.477,1155.7496,524.1677,1156.0652Q522.6898,1157.5752,520.3934,1160.9019L520.3928,1160.902Q520.3589,1160.9415,520.3249,1160.9838L520.3249,1160.9838Q519.52136,1161.987,516.9446,1167.501C516.9414,1167.5074,516.93854,1167.514,516.9355,1167.5205Q516.7816,1167.8612,515.79944,1169.4072C515.7523,1169.4813,515.7112,1169.5592,515.6763,1169.6395L515.67584,1169.6395Q515.26105,1170.2582,512.7853,1172.9459C512.1532,1173.6316,512.1971,1174.7002,512.8832,1175.3324C513.2306,1175.6522,513.6759,1175.799,514.11304,1175.7769C514.5393,1175.7551,514.95764,1175.5731,515.26953,1175.2344Q518.08246,1172.1812,518.5906,1171.3506L518.5907,1171.3505Q518.66876,1171.2229,518.7278,1171.0974L518.72723,1171.0975Q519.7515,1169.4801,520.0048,1168.931L520.0047,1168.931Q522.3828,1163.8425,522.9481,1163.1124L522.94763,1163.1125C523.008,1163.0487,523.0633,1162.9807,523.11304,1162.9084Q525.2872,1159.7506,526.5816,1158.4281C527.23413,1157.7615,527.22284,1156.6925,526.5562,1156.0398C526.2055,1155.6964,525.7431,1155.5367,525.2889,1155.56 Z"/>
</g>
<g style="fill:rgb(255,255,255); fill-opacity:1.0; stroke-linejoin: miter">
<path d="M516.4988,1168.1715Q516.88477,1168.8995,516.57697,1169.5415L516.57697,1169.5415C516.74475,1169.0972,516.71857,1168.5989,516.49835,1168.1715 Z M521.43835,1159.8221Q518.5537,1159.9684,516.53204,1161.0063L516.5316,1161.0063Q516.1877,1161.1012,515.8379,1161.329L515.8379,1161.329Q515.6113,1161.4766,515.2987,1161.7495L515.2983,1161.7495Q515.0424,1161.9486,514.77216,1162.2103L514.77216,1162.2103L514.772,1162.2104C514.74713,1162.2345,514.723,1162.2594,514.6997,1162.2848L514.4281,1162.5825L514.42773,1162.5825Q513.56854,1163.4573,512.3416,1164.8689C511.7348,1165.5667,511.80225,1166.6229,512.49286,1167.2379C512.83765,1167.5453,513.27374,1167.6852,513.7017,1167.6636C513.7334,1167.6619,513.7651,1167.6594,513.79663,1167.6561L513.797,1167.6561Q513.6882,1167.808,513.6232,1167.912L513.6232,1167.912Q513.5035,1168.1045,513.4275,1168.294L513.42706,1168.2942Q513.0876,1168.9313,512.85175,1169.6512Q512.58954,1170.4518,512.4564,1171.3529C512.4522,1171.3818,512.44867,1171.4109,512.44586,1171.44Q512.2532,1173.4651,512.339,1174.2091L512.339,1174.2091Q512.3493,1174.2976,512.36346,1174.379C512.51117,1175.2291,513.27045,1175.8198,514.1108,1175.777C514.179,1175.7736,514.2476,1175.766,514.31647,1175.7539C515.2286,1175.5957,515.84174,1174.7333,515.6949,1173.8219L515.69464,1173.8219Q515.6502,1173.437,515.80347,1171.8119L515.803,1171.8119Q515.894,1171.2151,516.06177,1170.7026Q516.22644,1170.1996,516.4658,1169.7782C516.4965,1169.7241,516.52405,1169.6688,516.5482,1169.6125L516.5478,1169.6125Q516.8084,1169.2402,517.80414,1168.0369L517.80414,1168.0369C517.8331,1168.0018,517.8608,1167.9658,517.8869,1167.9283Q518.26044,1167.3947,518.53265,1166.8561L518.5322,1166.8561Q519.18604,1165.771,519.25775,1163.8041C519.2595,1163.7555,519.25916,1163.7063,519.2566,1163.6572Q519.254,1163.6058,519.25055,1163.5558L519.2501,1163.5558Q520.28107,1163.2627,521.6093,1163.1956C522.54083,1163.1482,523.25775,1162.3547,523.21063,1161.4235C523.1633,1160.4918,522.3699,1159.775,521.43835,1159.8221 Z"/>
</g>
<g style="fill:rgb(255,255,255); fill-opacity:1.0; stroke-linejoin: miter">
<path d="M517.589,1164.0845C517.55566,1164.0862,517.5221,1164.0887,517.4885,1164.0924L516.6396,1164.1857C516.562,1164.1942,516.4852,1164.2083,516.4094,1164.2274L515.6657,1164.4155C515.5731,1164.439,515.4825,1164.4703,515.3951,1164.5092L514.75665,1164.7925C514.6539,1164.8381,514.5559,1164.8939,514.4643,1164.959L513.9312,1165.3375C513.8306,1165.4089,513.73834,1165.491,513.6557,1165.5824L513.2277,1166.0559C513.1451,1166.1472,513.07275,1166.2476,513.01196,1166.3546L512.6894,1166.9236C512.634,1167.0214,512.5884,1167.1243,512.5533,1167.2312L512.33594,1167.8949C512.30615,1167.9857,512.28406,1168.079,512.27,1168.1735L512.15796,1168.9326C512.14655,1169.0099,512.14056,1169.0879,512.13983,1169.1659L512.13293,1170.0199C512.12537,1170.9525,512.8755,1171.7148,513.80817,1171.7224C513.842,1171.7227,513.8756,1171.7219,513.9089,1171.7202C514.79517,1171.6753,515.5034,1170.9459,515.5107,1170.047L515.5166,1169.3104L515.59076,1168.8099L515.59076,1168.8099L515.7107,1168.443L515.8584,1168.1826L515.8584,1168.1826L516.0378,1167.9844L516.0378,1167.9844L516.28186,1167.811L516.28186,1167.811L516.6344,1167.6549L516.6344,1167.6549L517.12506,1167.5305L517.12506,1167.5305L517.85724,1167.4501C518.7845,1167.3481,519.4535,1166.514,519.35156,1165.5867C519.25336,1164.6932,518.47516,1164.0394,517.589,1164.0845 Z"/>
</g>
<g style="fill:rgb(255,255,255); fill-opacity:1.0; stroke-linejoin: miter">
<path d="M532.7857,1142.979Q529.6829,1143.1365,527.57855,1144.3252L527.5784,1144.3252Q526.83704,1144.7443,526.22266,1145.2891C526.17944,1145.3274,526.13806,1145.3678,526.099,1145.4104L523.0774,1148.7018L523.0684,1148.7118L517.93384,1154.3947L517.93384,1154.3947Q517.3817,1155.006,516.9675,1155.7357C516.94354,1155.778,516.9214,1155.8213,516.90106,1155.8654Q515.4489,1159.0339,515.79004,1161.9133C515.89514,1162.801,516.6711,1163.4462,517.551,1163.4015C517.5891,1163.3994,517.6274,1163.3962,517.6658,1163.3918C518.5921,1163.282,519.254,1162.442,519.14435,1161.5157Q518.9185,1159.6095,519.9386,1157.3458L519.9381,1157.3458Q520.1578,1156.9714,520.44025,1156.6593L520.44025,1156.6593L525.5706,1150.9806L525.5706,1150.9806L528.5217,1147.7666L528.52124,1147.7666Q528.8455,1147.489,529.2401,1147.266L529.2401,1147.266Q530.65027,1146.4695,532.95667,1146.3527C533.8882,1146.3054,534.6049,1145.5116,534.55774,1144.5801C534.5105,1143.6484,533.7171,1142.9319,532.7857,1142.979 Z"/>
</g>
<g style="fill:rgb(255,255,255); fill-opacity:1.0; stroke-linejoin: miter">
<path d="M528.9345,1147.2411L528.82684,1147.25Q528.11896,1147.3702,527.76697,1147.7957L513.1834,1163.9641Q512.8552,1164.3734,512.8866,1165.3586Q512.8015,1165.7513,513.18256,1166.4792Q513.9572,1167.652,515.73004,1167.5605Q516.8164,1167.5059,517.8504,1167.0516Q519.1315,1166.3965,519.37195,1166.1458Q519.8693,1165.7689,520.3536,1165.2924L534.4714,1149.6753Q535.2712,1148.0049,533.73566,1147.1669Q532.98193,1146.8676,532.26526,1147.2405Q532.0709,1147.3464,531.90497,1147.506L530.7058,1148.825Q530.48444,1147.3165,528.9345,1147.2411"/>
</g>
<g style="fill:rgb(255,255,255); fill-opacity:1.0; stroke-linejoin: miter">
<path d="M532.99255,1147.0353C532.96497,1147.0369,532.9374,1147.039,532.9095,1147.0417Q528.60425,1147.4701,526.9885,1148.8947L526.988,1148.8947Q526.3571,1149.3562,525.84143,1149.9266L525.8351,1149.9336L521.6293,1154.641L521.6288,1154.641Q521.45636,1154.8125,521.3033,1155.0425L521.3033,1155.0425Q520.9444,1155.5815,520.3867,1156.9642C520.3726,1156.9991,520.3598,1157.0345,520.3481,1157.0701Q519.83154,1158.6471,519.81555,1160.6176L519.8155,1160.6301Q519.8143,1162.7283,520.20526,1163.9315L520.2048,1163.9315Q520.2649,1164.2461,520.405,1164.5176L520.4046,1164.5176C519.85626,1165.21,519.93274,1166.2185,520.59717,1166.8188C520.94324,1167.1316,521.38324,1167.2743,521.81494,1167.2524C522.2466,1167.2305,522.67,1167.044,522.98254,1166.6978L524.5755,1164.9348L524.575,1164.9348Q524.8072,1164.7258,524.9817,1164.4857L524.9812,1164.4857L530.68463,1158.1731C531.3098,1157.4808,531.25574,1156.413,530.5636,1155.7878C530.21765,1155.4753,529.7775,1155.3322,529.3459,1155.354C528.91425,1155.3761,528.4909,1155.5627,528.1782,1155.9086L523.2086,1161.4092L523.2086,1161.4092Q523.1933,1161.0582,523.1933,1160.6449L523.1933,1160.6449Q523.2048,1159.2374,523.5399,1158.1782L523.5394,1158.1782Q523.915,1157.25,524.0841,1156.9637L524.0836,1156.9637C524.0896,1156.957,524.0956,1156.9506,524.10156,1156.9438L528.3541,1152.1842L528.3541,1152.1842Q528.6554,1151.8524,529.0333,1151.584C529.0981,1151.538,529.1596,1151.4875,529.2173,1151.433Q529.9595,1150.7295,533.2439,1150.4027C534.17206,1150.3105,534.8496,1149.483,534.7573,1148.555C534.6677,1147.6545,533.88654,1146.9904,532.99255,1147.0353 Z"/>
</g>
<g style="fill:rgb(255,255,255); fill-opacity:1.0; stroke-linejoin: miter">
<path d="M512.5055,1169.1333L512.5055,1169.1333Q512.57916,1169.4454,512.53516,1169.7035L512.53516,1169.7035C512.5575,1169.5134,512.54755,1169.3208,512.50507,1169.1333 Z M521.43835,1159.8221C520.5067,1159.8694,519.7898,1160.663,519.8371,1161.5945Q519.91644,1163.1613,519.6402,1164.3534C519.6239,1164.4237,519.6121,1164.4952,519.605,1164.5673L519.6045,1164.5673Q519.52014,1164.8907,519.055,1165.8743L519.05444,1165.8743Q518.8344,1166.2509,518.5508,1166.5645L514.6998,1170.827L514.6998,1170.827Q514.25305,1171.3213,513.94574,1171.3822L513.9453,1171.3822Q513.9313,1171.3838,513.91705,1171.3844Q513.44916,1171.4081,512.73004,1170.6064C512.7034,1170.5769,512.67584,1170.5482,512.6473,1170.5206L512.64685,1170.5206Q512.5722,1170.3743,512.46704,1170.0647L512.4667,1170.0647Q512.4694,1170.0145,512.48505,1169.9585C512.4929,1169.9304,512.49994,1169.9021,512.5063,1169.8739L512.50586,1169.8739Q512.64087,1169.6509,512.9903,1169.1897L512.99,1169.1897L518.72034,1162.847C519.34564,1162.1548,519.2915,1161.0867,518.59937,1160.4612C518.2533,1160.1487,517.8134,1160.0061,517.38165,1160.028C516.95,1160.0497,516.5266,1160.2362,516.21405,1160.5823L510.43756,1166.9757C510.40582,1167.0109,510.37543,1167.0475,510.3468,1167.0851Q509.65845,1167.9894,509.40942,1168.5015L509.40942,1168.5015Q509.2171,1168.8981,509.1761,1169.2748L509.17572,1169.2748Q509.02185,1169.9799,509.13635,1170.6837C509.1499,1170.767,509.16974,1170.8491,509.19562,1170.9296Q509.4972,1171.8674,509.82825,1172.3901L509.82825,1172.3901Q510.04407,1172.7308,510.31067,1172.9657L510.3103,1172.9658Q512.0658,1174.8615,514.06396,1174.7603Q514.2503,1174.7509,514.43866,1174.724C514.4497,1174.7225,514.46106,1174.7208,514.47205,1174.7189Q515.9532,1174.4779,517.2062,1173.0912L517.2062,1173.0912L521.05707,1168.829Q521.6093,1168.2179,522.0235,1167.4879C522.0437,1167.4524,522.0626,1167.4159,522.0802,1167.3789Q522.7565,1165.9545,522.9089,1165.2717L522.9089,1165.2717Q522.93896,1165.1368,522.95544,1165.0098L522.9549,1165.0099Q523.31055,1163.3973,523.21063,1161.4235C523.1633,1160.4918,522.3699,1159.775,521.43835,1159.8221 Z"/>
</g>
<g style="fill:rgb(255,255,255); fill-opacity:1.0; stroke-linejoin: miter">
<path d="M548.1892,1125.93C547.75757,1125.952,547.3343,1126.1388,547.02155,1126.4846L520.06494,1156.3202C519.43964,1157.0122,519.4937,1158.0801,520.1858,1158.7053C520.532,1159.0182,520.972,1159.161,521.40375,1159.1392C521.8353,1159.1171,522.2586,1158.9305,522.5713,1158.5846L549.5281,1128.7493C550.1532,1128.057,550.09906,1126.989,549.40704,1126.3639C549.061,1126.0511,548.621,1125.9082,548.1892,1125.93 Z"/>
</g>
<g style="fill:rgb(255,255,255); fill-opacity:1.0; stroke-linejoin: miter">
<path d="M548.39484,1129.9866C548.39484,1129.9866,548.39484,1129.9866,548.39484,1129.9866Q545.4068,1130.1382,543.34454,1131.2468L543.3439,1131.2468Q543.1314,1131.3269,542.9156,1131.4547L542.9156,1131.4547Q541.66547,1132.1941,538.2214,1136.2256L538.2207,1136.2256L525.43774,1150.4264C525.3967,1150.4719,525.3583,1150.5197,525.32245,1150.5695Q523.47504,1153.1344,523.688,1157.3322C523.7352,1158.2635,524.52875,1158.9807,525.4603,1158.9335C526.3918,1158.8861,527.10876,1158.0928,527.06146,1157.1613Q526.91205,1154.2134,528.0133,1152.6146L528.0128,1152.6146L540.7584,1138.4552C540.76825,1138.4443,540.77783,1138.4333,540.7873,1138.4224Q543.764,1134.9377,544.5807,1134.3964L544.58,1134.3964C544.6732,1134.3634,544.7633,1134.3223,544.84955,1134.2736Q546.25977,1133.477,548.566,1133.3601C549.4975,1133.3129,550.21436,1132.5194,550.1671,1131.5878C550.1198,1130.6561,549.3265,1129.9395,548.39484,1129.9866 Z"/>
</g>
<g style="fill:rgb(255,255,255); fill-opacity:1.0; stroke-linejoin: miter">
<path d="M536.4308,1134.6603C535.49915,1134.7074,534.78235,1135.5009,534.82965,1136.4325Q534.93134,1138.4382,533.68884,1139.8136L533.68884,1139.8136Q533.26733,1140.2799,532.6849,1140.694L532.68427,1140.694Q530.4717,1141.9637,528.74774,1143.184L528.74774,1143.184C528.74146,1143.1842,528.7352,1143.1846,528.72894,1143.1847C528.29724,1143.2067,527.8739,1143.3931,527.5612,1143.7393L525.8953,1145.5831L525.89484,1145.5831Q525.2133,1146.2684,524.62726,1146.9904C524.0499,1147.7006,524.1439,1148.7416,524.8393,1149.3376C525.18066,1149.6299,525.6062,1149.7627,526.0235,1149.7416C526.45575,1149.7197,526.87915,1149.5327,527.1913,1149.1871L528.34515,1147.9103L528.34454,1147.9103Q529.10535,1147.152,530.01575,1146.4385L530.01514,1146.4385Q531.8542,1145.0605,534.43427,1143.5841C534.478,1143.5591,534.52057,1143.5322,534.5619,1143.5032Q535.49567,1142.8519,536.195,1142.0778L536.19507,1142.0778Q538.3757,1139.6644,538.20306,1136.2616C538.15576,1135.33,537.36224,1134.6129,536.4308,1134.6603 Z"/>
</g>
<g style="fill:rgb(255,255,255); fill-opacity:1.0; stroke-linejoin: miter">
<path d="M540.2818,1130.3981C539.35016,1130.4451,538.63324,1131.2389,538.68054,1132.1704Q539.0062,1138.5966,532.5799,1138.9225C531.6484,1138.9697,530.9315,1139.7631,530.9786,1140.6945C531.0259,1141.626,531.8194,1142.3431,532.75104,1142.2959Q542.55084,1141.7992,542.054,1131.9991C542.00665,1131.0675,541.21326,1130.3508,540.2818,1130.3981 Z"/>
</g>
<g style="fill:rgb(255,255,255); fill-opacity:1.0; stroke-linejoin: miter">
<path d="M540.2818,1130.3981C539.35016,1130.4451,538.63324,1131.2389,538.68054,1132.1704Q538.7822,1134.176,537.53955,1135.5511L537.53955,1135.5511Q537.1078,1136.029,536.50745,1136.4521L536.5068,1136.4521L535.7545,1136.9238L531.8346,1139.1388C531.02246,1139.5974,530.736,1140.6276,531.19495,1141.44C531.52057,1142.0161,532.1335,1142.3274,532.7523,1142.2963C533.0057,1142.2833,533.2602,1142.213,533.4962,1142.0797L537.4501,1139.8458C537.4726,1139.833,537.49475,1139.8197,537.5167,1139.806L538.3439,1139.2869C538.3672,1139.2723,538.3902,1139.2571,538.4129,1139.2412Q539.34656,1138.5898,540.04596,1137.8154L540.0459,1137.8154Q542.2265,1135.4021,542.054,1131.9991C542.00665,1131.0675,541.21326,1130.3508,540.2818,1130.3981 Z"/>
</g>
<g style="fill:rgb(255,255,255); fill-opacity:1.0; stroke-linejoin: miter">
<path d="M540.29834,1138.5166Q538.6539,1138.6,536.35406,1139.4324C536.31683,1139.446,536.28,1139.4609,536.2438,1139.477Q534.6968,1140.1637,533.62256,1141.3162L533.62195,1141.3162Q533.57477,1141.3578,533.5284,1141.402L533.5284,1141.402Q532.50183,1142.3806,531.6998,1145.0028L531.69965,1145.0028Q531.29913,1146.2693,531.37915,1149.5331L531.37854,1149.5331Q531.3349,1149.9976,531.19324,1150.3207L531.19324,1150.3207Q530.8021,1151.2135,529.1404,1151.2977Q529.14026,1151.2977,529.14026,1151.2977L529.14026,1151.2977C528.20874,1151.345,527.4917,1152.1382,527.53894,1153.0697C527.5862,1154.0013,528.3797,1154.7183,529.3113,1154.6711Q533.0581,1154.4812,534.2871,1151.6765L534.2871,1151.6765Q534.6732,1150.7954,534.75415,1149.7007C534.7583,1149.6445,534.7596,1149.5878,534.75806,1149.5315Q534.6848,1146.7401,534.9198,1146.0222C534.9232,1146.0116,534.9265,1146.0011,534.92975,1145.9906Q535.46857,1144.2295,535.85266,1143.8529L535.85205,1143.8529C535.9227,1143.796,535.9888,1143.7338,536.0496,1143.6667Q536.64764,1143.005,537.5605,1142.5884L537.5599,1142.5885Q539.35,1141.9457,540.44403,1141.8901Q540.596,1141.8826,540.7345,1141.8862C540.77875,1141.8875,540.8225,1141.8868,540.8659,1141.8846C541.7388,1141.8402,542.4437,1141.1302,542.4669,1140.2417C542.4914,1139.3097,541.75507,1138.5338,540.82263,1138.5095Q540.56946,1138.503,540.29834,1138.5166 Z"/>
</g>
<g style="fill:rgb(255,255,255); fill-opacity:1.0; stroke-linejoin: miter">
<path d="M544.74963,1138.3054C544.31793,1138.3271,543.8946,1138.5137,543.582,1138.8597L537.80566,1145.2533Q537.5194,1145.57,537.1636,1145.8291L537.16296,1145.8291Q536.23224,1146.3904,535.92194,1146.5048L535.9213,1146.5049C535.85187,1146.5192,535.78326,1146.5377,535.716,1146.5608Q534.55786,1146.9558,532.9912,1147.0356C532.05963,1147.0828,531.3427,1147.8762,531.38995,1148.8079C531.4371,1149.7391,532.2306,1150.4562,533.1621,1150.409Q535.1323,1150.3091,536.69794,1149.7941L536.6973,1149.7941Q536.8254,1149.7645,536.9604,1149.7195L536.9604,1149.7195Q537.62415,1149.499,538.9727,1148.6821C539.0079,1148.6608,539.04205,1148.6384,539.0755,1148.6146Q539.7597,1148.1288,540.3118,1147.5175L546.0883,1141.1243C546.71375,1140.4321,546.6596,1139.3644,545.96747,1138.7389C545.6213,1138.4261,545.1813,1138.2834,544.74963,1138.3054 Z"/>
</g>
<g style="fill:rgb(255,255,255); fill-opacity:1.0; stroke-linejoin: miter">
<path d="M540.693,1138.5111Q530.89325,1139.008,531.38995,1148.8079C531.4371,1149.7391,532.2306,1150.4562,533.1621,1150.409C534.0938,1150.3617,534.81067,1149.568,534.7635,1148.637Q534.4376,1142.2102,540.86414,1141.8846Q540.86414,1141.8846,540.86414,1141.8846C541.7956,1141.8374,542.5125,1141.0438,542.46533,1140.1123C542.4182,1139.1809,541.6245,1138.4639,540.693,1138.5111Q540.693,1138.5111,540.693,1138.5111 Z"/>
</g>
<g style="fill:rgb(255,255,255); fill-opacity:1.0; stroke-linejoin: miter">
<path d="M542.03174,1141.33L542.03174,1141.33L538.1807,1145.5919C537.5556,1146.2844,536.4874,1146.3383,535.7954,1145.713C535.1032,1145.0878,535.0492,1144.0199,535.67444,1143.3276L535.67444,1143.3276L539.5253,1139.0654C540.15063,1138.3735,541.21857,1138.3192,541.9108,1138.9447C542.603,1139.5701,542.6571,1140.6381,542.03174,1141.33 Z"/>
</g>
<g style="fill:rgb(255,255,255); fill-opacity:1.0; stroke-linejoin: miter">
<path d="M540.6943,1138.5107C540.0755,1138.5419,539.49713,1138.9138,539.2317,1139.52L537.42456,1143.6439L537.42456,1143.6439L537.02405,1144.4545L537.0234,1144.4545Q536.66644,1145.0859,536.2394,1145.5583L536.2394,1145.5583Q534.9968,1146.9337,532.9912,1147.0356C532.05963,1147.0828,531.3427,1147.8762,531.38995,1148.8079C531.4371,1149.7391,532.2306,1150.4562,533.1621,1150.409Q536.5652,1150.2362,538.7458,1147.8228L538.74585,1147.8228Q539.44525,1147.0488,539.99896,1146.054C540.0123,1146.0299,540.0252,1146.0054,540.0375,1145.9807L540.47015,1145.1052C540.48157,1145.0822,540.4925,1145.0586,540.5029,1145.0349L542.32544,1140.8756C542.6998,1140.0212,542.3107,1139.0254,541.4565,1138.651C541.2081,1138.5424,540.9478,1138.4979,540.6943,1138.5107 Z"/>
</g>
<g style="fill:rgb(255,255,255); fill-opacity:1.0; stroke-linejoin: miter">
<path d="M540.8988,1142.5677Q537.7962,1142.7249,535.6918,1143.9137L535.6918,1143.9137Q534.95026,1144.3328,534.3358,1144.8774C534.3125,1144.8981,534.2899,1144.9193,534.2678,1144.941L533.8138,1145.3911C533.7916,1145.4131,533.76996,1145.4357,533.7491,1145.459L531.82355,1147.5902C531.1981,1148.282,531.2523,1149.35,531.94446,1149.9753C532.29047,1150.2881,532.7304,1150.4308,533.1621,1150.409C533.5939,1150.3871,534.0173,1150.2004,534.3299,1149.8547L536.2239,1147.7579L536.2239,1147.7579L536.6045,1147.3811L536.6038,1147.3811Q536.94006,1147.0881,537.35345,1146.8547L537.35345,1146.8547Q538.76355,1146.0579,541.0698,1145.9412C542.0013,1145.8938,542.71826,1145.1003,542.671,1144.1688C542.6238,1143.237,541.8303,1142.5204,540.8988,1142.5677 Z"/>
</g>
<g style="fill:rgb(255,255,255); fill-opacity:1.0; stroke-linejoin: miter">
<path d="M550.6453,1127.5131L550.66223,1128.1733Q550.66254,1128.8162,550.59576,1129.3875L550.51245,1129.9414Q550.41223,1130.4773,550.24524,1130.9424Q549.94165,1131.8534,549.24915,1132.5565Q548.8109,1132.9409,548.65076,1133.0583Q548.4273,1133.2316,548.22876,1133.3612Q547.74896,1133.5751,547.4479,1133.68L546.6213,1133.9634L546.41,1134.0126Q545.6452,1134.1688,544.53455,1134.2758L550.6453,1127.5131 M544.2055,1137.7065L543.924,1137.84L543.62714,1137.9618L543.3145,1138.0715L542.9864,1138.1698L542.64264,1138.256L542.2832,1138.3306L541.9084,1138.3933L541.5178,1138.4442L541.1119,1138.4838Q541.30743,1138.3749,541.55975,1138.2565Q541.6193,1138.2251,541.65,1138.2056Q541.8001,1138.1472,542.1211,1138.0597L542.48456,1137.965Q542.55975,1137.9437,543.18915,1137.7955Q543.61127,1137.762,544.2055,1137.7065 M551.0656,1122.7468L550.9578,1122.7555Q550.24994,1122.8756,549.89795,1123.3011L537.69006,1136.8126Q537.3635,1137.1102,537.06067,1137.4417Q536.5972,1137.9395,536.2171,1138.5095Q535.61005,1139.85,536.80255,1140.7578Q538.04626,1141.4448,539.09265,1140.2994Q539.19257,1141.2631,540.0055,1141.6996Q540.3815,1142.0048,541.7743,1141.8141Q545.3245,1141.4387,547.42694,1139.5743L557.64105,1128.3375Q557.7971,1128.1637,557.8971,1127.9644Q558.2353,1127.445,557.9197,1126.4929Q557.5932,1125.7444,556.62665,1125.5334Q555.9107,1125.475,555.48254,1125.779Q555.29456,1125.8981,555.1374,1126.0703L554.01685,1127.3044Q553.7848,1125.7987,552.2613,1125.7236Q552.78796,1125.1329,552.8046,1124.7786Q552.9362,1124.1143,552.57605,1123.526Q551.9986,1122.7115,551.0656,1122.7468"/>
</g>
<g style="fill:rgb(255,255,255); fill-opacity:1.0; stroke-linejoin: miter">
<path d="M550.47565,1128.2421C550.4744,1128.2489,550.47327,1128.2556,550.4721,1128.2625L550.44324,1128.4343L550.44324,1128.4343Q550.455,1128.341,550.4749,1128.2422 Z M552.20044,1133.9392L552.20044,1133.9392L552.20044,1133.9392L552.20044,1133.9392 Z M547.4424,1125.9761Q546.7742,1126.0098,545.8387,1126.101C545.50116,1126.1337,545.1815,1126.2672,544.921,1126.4841Q544.41925,1126.9022,544.2473,1127.4635L544.2465,1127.4635L543.80664,1128.658L540.90955,1129.9805C540.8521,1130.0067,540.79626,1130.0361,540.7421,1130.0687Q540.24677,1130.366,539.9926,1130.8273L539.99194,1130.8273Q539.8743,1131.0288,539.79236,1131.2777L539.79236,1131.2778Q539.7087,1131.5316,539.6153,1131.9636C539.6114,1131.9818,539.6077,1132.0001,539.60443,1132.0186L538.9466,1135.6438C538.7801,1136.5618,539.38904,1137.4407,540.3069,1137.6072C540.4378,1137.631,540.568,1137.639,540.6954,1137.6326C541.46094,1137.5936,542.1275,1137.0339,542.27026,1136.2471L542.8981,1132.7858L542.8981,1132.7858L545.2716,1131.7023L545.27094,1131.7023Q545.49567,1131.6077,545.7232,1131.4574L545.7232,1131.4574Q545.8708,1131.3602,546.0259,1131.2355L546.0259,1131.2355C546.053,1131.2137,546.07947,1131.1909,546.1052,1131.1675Q546.24945,1131.0356,546.3682,1130.9044L546.36835,1130.9044Q546.6632,1130.5785,546.82275,1130.2284L546.82275,1130.2284C546.84015,1130.1903,546.85614,1130.1515,546.87067,1130.1119L547.14166,1129.3763L547.14087,1129.3763Q547.45636,1129.3519,547.6952,1129.3398Q548.11725,1129.3185,548.2998,1129.3351L548.299,1129.3353L550.2359,1129.6691L550.2359,1129.6691L549.9409,1131.4258L549.9409,1131.4258L546.9725,1133.9036C546.9286,1133.9401,546.8866,1133.9789,546.8466,1134.0198Q546.5629,1134.3104,546.3598,1134.6365L546.3598,1134.6365Q546.30255,1134.7283,546.2518,1134.8226L546.2518,1134.8226C546.1898,1134.938,546.1416,1135.06,546.10785,1135.1863Q546.06726,1135.3384,546.0338,1135.4447L546.03314,1135.4448L542.49713,1137.8236C542.4914,1137.8275,542.48566,1137.8315,542.48,1137.8354Q542.1108,1138.0905,541.8318,1138.4524L541.83105,1138.4524L540.69147,1138.5112C539.7598,1138.5592,539.0439,1139.3535,539.0918,1140.2848C539.14,1141.2161,539.93317,1141.9316,540.86414,1141.8846C540.8646,1141.8846,540.8652,1141.8846,540.86566,1141.8846L542.4738,1141.8014C542.51935,1141.7992,542.56476,1141.7949,542.6099,1141.789Q542.97437,1141.7405,543.359,1141.561L543.3591,1141.561Q543.4309,1141.5276,543.50464,1141.4891L543.50397,1141.4891Q543.81995,1141.335,544.117,1141.05L544.117,1141.05Q544.1474,1141.0209,544.1785,1140.9896C544.30566,1140.8617,544.4115,1140.7142,544.49207,1140.5531L544.4913,1140.5531L548.2584,1138.0188C548.30615,1137.9867,548.3522,1137.9524,548.39624,1137.9155Q548.75616,1137.6158,548.99896,1137.1179L548.99896,1137.1179Q549.1458,1136.8165,549.27997,1136.378L549.2792,1136.378L552.2023,1133.9377L552.20233,1133.9377Q552.5751,1133.6276,552.8412,1133.1854C552.85,1133.1707,552.8586,1133.156,552.867,1133.1411Q552.9861,1132.9283,553.07025,1132.7252L553.07025,1132.725Q553.20154,1132.4083,553.2524,1132.1019L553.2524,1132.1019L553.7938,1128.8792L553.793,1128.8792Q554.1346,1127.2792,552.38354,1126.6613L552.38354,1126.6613Q552.22406,1126.6049,552.03827,1126.5575C551.99493,1126.5463,551.9512,1126.537,551.90717,1126.5294L548.822,1125.9978C548.7993,1125.9939,548.7766,1125.9905,548.75336,1125.9874Q548.7242,1125.9838,548.69366,1125.9802L548.6933,1125.9802Q548.27576,1125.9336,547.4424,1125.9761 Z"/>
</g>
<g style="fill:rgb(255,255,255); fill-opacity:1.0; stroke-linejoin: miter">
<path d="M549.9178,1132.1503L550.07385,1132.3335C550.151,1132.4238,550.2375,1132.506,550.33185,1132.5782L550.33185,1132.5782Q550.06555,1132.3743,549.9169,1132.1503 Z M540.22644,1138.5338Q540.3337,1138.5283,540.45575,1138.539L540.45575,1138.539C540.37866,1138.5323,540.30133,1138.5309,540.224,1138.5347L540.1783,1138.5371L540.1783,1138.5371Q540.202,1138.535,540.22644,1138.5338 Z M548.3264,1126.0918C547.96814,1126.1102,547.61255,1126.2424,547.3182,1126.493C546.60803,1127.0978,546.5226,1128.1637,547.12744,1128.874L549.49304,1131.6515L549.49304,1131.6515L545.7204,1134.5348L545.72034,1134.5349Q545.56384,1134.6531,545.41003,1134.8107L545.4099,1134.8107Q545.27527,1134.9486,545.132,1135.1276L545.1319,1135.1276C545.0542,1135.2246,544.9874,1135.33,544.9329,1135.4414Q544.8553,1135.6002,544.7982,1135.6998L544.79755,1135.7001L541.29596,1137.4016L541.2953,1137.4016Q541.0899,1137.4895,540.8791,1137.6278L540.8791,1137.6278Q540.45465,1137.9062,539.7907,1138.5568L539.79004,1138.5568L536.6366,1138.7169C535.70496,1138.764,534.9881,1139.5575,535.0352,1140.4889C535.08246,1141.4205,535.87585,1142.1372,536.8076,1142.0902L540.3449,1141.9106L540.3456,1141.9106Q540.38135,1141.9103,540.4174,1141.9084Q540.8266,1141.8878,541.26385,1141.6904L541.2641,1141.6902Q541.299,1141.6744,541.3349,1141.6573C541.5157,1141.5704,541.6797,1141.4525,541.8191,1141.3081Q542.4512,1140.6547,542.6965,1140.4768L542.6958,1140.4768C542.70526,1140.4723,542.7147,1140.468,542.7241,1140.4634L546.5697,1138.5942C546.62714,1138.5664,546.6827,1138.535,546.7365,1138.501Q547.0789,1138.2836,547.3696,1137.9158L547.3696,1137.9158Q547.6083,1137.6134,547.8479,1137.1608L547.8471,1137.1608L552.06647,1133.936C552.2745,1133.7769,552.44275,1133.5717,552.55786,1133.3364Q552.92554,1132.5851,553.04895,1132.0616L553.04895,1132.0616Q553.3466,1130.7987,552.5722,1130.0563L552.57135,1130.0563L549.69916,1126.684C549.34503,1126.2681,548.8328,1126.0664,548.3264,1126.0918 Z"/>
</g>
<g style="fill:rgb(255,255,255); fill-opacity:1.0; stroke-linejoin: miter">
<path d="M542.69525,1134.315C542.67096,1134.3239,542.64685,1134.3335,542.6229,1134.3436L542.62225,1134.3436L542.6212,1134.3436L542.6212,1134.3436Q542.6566,1134.3287,542.6946,1134.315 Z M546.88257,1126.6251C546.0768,1126.666,545.39325,1127.2814,545.2933,1128.1095C545.19745,1128.9027,545.668,1129.6334,546.38666,1129.8972L546.38586,1129.8972L546.27826,1131.2708L546.27826,1131.2708L542.5463,1134.3475L542.5463,1134.3475L540.48535,1134.4548C539.5537,1134.5032,538.8378,1135.2975,538.8863,1136.229C538.93463,1137.1597,539.72766,1137.875,540.6584,1137.8281C540.65906,1137.8281,540.6597,1137.8281,540.6605,1137.8279L542.9907,1137.7068C543.06396,1137.7026,543.1369,1137.6942,543.2092,1137.6808Q543.35,1137.6548,543.4741,1137.6232L543.4742,1137.6232Q543.82294,1137.5339,544.09436,1137.3799L544.0936,1137.3799Q544.20123,1137.3225,544.31036,1137.2484L544.31036,1137.2484Q544.39307,1137.1921,544.50366,1137.1091C544.52466,1137.0938,544.5453,1137.0775,544.5654,1137.0609L548.7485,1133.6117C548.8529,1133.5255,548.94653,1133.4271,549.0275,1133.3186Q549.07996,1133.2485,549.1279,1133.1766L549.1279,1133.1766Q549.5452,1132.5552,549.61926,1131.8627C549.621,1131.8469,549.62244,1131.8313,549.62366,1131.8156L549.8534,1128.8905C549.8713,1128.6613,549.8423,1128.4309,549.7683,1128.2135Q549.45074,1127.2812,548.36847,1126.8931L548.36847,1126.8931Q547.8914,1126.722,547.1724,1126.6354C547.0746,1126.6234,546.97766,1126.6202,546.88257,1126.6251 Z"/>
</g>
<g style="fill:rgb(255,255,255); fill-opacity:1.0; stroke-linejoin: miter">
<path d="M554.88025,1117.8215L554.88025,1117.8215Q554.81165,1117.8634,554.74744,1117.9116L554.42017,1118.166Q554.4618,1118.1251,554.5076,1118.0853L554.5545,1118.046Q554.6024,1118.0067,554.6545,1117.9689Q554.7581,1117.893,554.88025,1117.8215 M552.8732,1117.6012L552.7608,1117.6106Q552.3502,1117.6313,551.8554,1118.0085Q551.8596,1117.97,551.2056,1118.7194L547.89795,1121.5012Q547.6969,1121.6699,547.5189,1121.9983Q547.1523,1122.1577,546.9372,1122.4075Q546.6117,1122.8761,546.633,1123.1741L543.2439,1126.4567Q542.9993,1126.7682,542.9011,1127.3138Q542.8414,1127.6528,542.89014,1127.9362Q542.98785,1128.5028,543.51984,1128.8468Q544.25024,1129.2344,544.6212,1129.2255Q545.73425,1129.2728,546.35895,1129.1335Q546.9771,1128.9252,547.28986,1128.4353Q547.8759,1129.2114,548.6152,1129.2208L550.12115,1129.1844L550.388,1129.1548Q550.8906,1129.0671,551.30914,1128.7565Q551.7006,1129.0542,552.2123,1129.096L554.2294,1129.0061L554.5319,1129.0225Q555.07684,1128.9949,555.5271,1128.5398Q555.9988,1128.0833,556.4591,1126.9138L560.9556,1124.4738Q561.1285,1124.3798,561.27075,1124.2533Q561.9896,1123.4608,561.8192,1122.7311Q561.406,1121.2327,559.9547,1121.3071Q560.92377,1120.3999,560.84766,1120.3997Q561.0073,1120.27,561.1943,1119.4199Q561.2939,1118.4845,560.3715,1117.9669Q559.8888,1117.7045,559.4962,1117.6638L557.3716,1117.502Q556.90015,1117.4683,556.449,1117.6884Q556.0477,1117.5336,555.6763,1117.5354L552.8732,1117.6012"/>
</g>
<g style="fill:rgb(255,255,255); fill-opacity:1.0; stroke-linejoin: miter">
<path d="M544.11017,1126.137L544.11017,1126.137L545.11664,1126.0724L544.7704,1126.1312Q544.48975,1126.2098,544.3296,1126.3933L544.17267,1126.6047L546.0559,1123.6069C546.16724,1123.4299,546.3105,1123.2749,546.47833,1123.1501L546.47833,1123.1501Q546.8071,1122.9059,546.90204,1122.8053L546.9019,1122.8053Q546.8896,1122.8184,546.86993,1122.844C546.8788,1122.8324,546.8877,1122.821,546.8969,1122.8097L546.8969,1122.8097L550.365,1118.5343C550.9527,1117.8102,552.01624,1117.699,552.7406,1118.2866C553.465,1118.8743,553.5759,1119.9377,552.9883,1120.6622L552.9883,1120.6622L549.5202,1124.9377L549.5473,1124.9034Q549.4631,1125.013,549.35864,1125.1235L549.35864,1125.1235Q549.06036,1125.4397,548.4937,1125.861L548.9162,1125.404L547.0328,1128.4016C546.9859,1128.4761,546.9334,1128.5466,546.87573,1128.613L546.87573,1128.613Q546.3717,1129.1913,545.6791,1129.3846C545.566,1129.4161,545.4499,1129.4359,545.3328,1129.4434L545.3328,1129.4434L544.32623,1129.5078C543.3953,1129.5676,542.5924,1128.8615,542.53284,1127.9305C542.47314,1126.9999,543.1793,1126.1968,544.11017,1126.137 Z"/>
</g>
<g style="fill:rgb(255,255,255); fill-opacity:1.0; stroke-linejoin: miter">
<path d="M544.30743,1126.136L544.30743,1126.136Q544.38,1126.1399,544.41144,1126.1372L544.41144,1126.1372Q543.9718,1126.1732,543.62384,1126.6644C543.6337,1126.6505,543.64386,1126.6366,543.6542,1126.623L543.6542,1126.623L545.10913,1124.695L545.10565,1124.6996Q545.3802,1124.3329,545.8182,1124.0564L545.8245,1124.0524Q546.1176,1123.8688,546.49255,1123.712C546.50305,1123.7076,546.5134,1123.7036,546.524,1123.6993L546.524,1123.6993L549.0218,1122.7134L548.8623,1122.7863Q548.5735,1122.9363,548.443,1123.1233L548.443,1123.1233Q548.5033,1123.0366,548.6306,1122.7715C548.6734,1122.6823,548.7239,1122.597,548.78156,1122.5166L548.70276,1122.637L548.70276,1122.637L548.78174,1122.5165Q548.95026,1122.282,549.1752,1122.0715L549.175,1122.0717Q549.2096,1122.0391,549.24567,1122.0073C549.2809,1121.9758,549.31744,1121.946,549.35535,1121.9177L549.35535,1121.9177L552.5132,1119.562C553.2608,1119.0042,554.3191,1119.1581,554.87683,1119.9059C555.4346,1120.6534,555.28064,1121.7117,554.53296,1122.2694L554.53296,1122.2694L551.37506,1124.6252L551.4847,1124.5361Q551.4841,1124.5369,551.4837,1124.5372L551.48346,1124.5374Q551.5007,1124.5211,551.52563,1124.4866L551.6046,1124.366L551.6046,1124.366L551.6766,1124.2314Q551.43024,1124.7454,551.21204,1125.0577L551.21204,1125.0577Q550.868,1125.5502,550.42145,1125.7825C550.3695,1125.8094,550.31635,1125.8339,550.2619,1125.8551L550.2619,1125.8551L547.76416,1126.8412L547.7957,1126.8284Q547.6752,1126.8789,547.61566,1126.916L547.6221,1126.912Q547.7106,1126.8562,547.8091,1126.7246L547.80554,1126.7295L546.3505,1128.6575L546.38086,1128.6158Q545.81744,1129.4121,544.6848,1129.5039L544.6848,1129.5039Q544.42773,1129.525,544.1289,1129.509C543.1975,1129.4596,542.48236,1128.6647,542.5316,1127.7332C542.5809,1126.8015,543.37604,1126.0867,544.30743,1126.136 Z"/>
</g>
<g style="fill:rgb(255,255,255); fill-opacity:1.0; stroke-linejoin: miter">
<path d="M555.91675,1122.2786L555.91675,1122.2786Q555.75085,1122.5502,555.69434,1122.8586L555.70734,1122.7906L555.72314,1122.7236L555.742,1122.6573L555.7636,1122.5919L555.78827,1122.5276Q555.8144,1122.4634,555.8462,1122.4012L555.87964,1122.3394L555.9159,1122.2786L555.91675,1122.2786 M555.7116,1123.5494L555.71277,1123.5544Q555.7178,1123.5844,555.7585,1123.712Q555.7935,1123.8138,555.8408,1123.9097L555.8908,1124.0034Q555.9436,1124.0956,556.0073,1124.1799Q556.07104,1124.2644,556.14484,1124.3402L556.22076,1124.4137Q556.29913,1124.4847,556.3862,1124.5458L556.4753,1124.604L556.4744,1124.6041L556.5369,1124.6794L556.3935,1124.6134L556.26294,1124.5323L556.1454,1124.4363L556.0407,1124.3257L555.94885,1124.2002L555.87,1124.0597L555.804,1123.9044L555.7509,1123.7344L555.7107,1123.5494L555.7116,1123.5494 M562.10284,1127.52L562.10284,1127.52L562.16125,1127.5665Q562.15436,1127.5619,562.12164,1127.5361L562.102,1127.5201L562.10284,1127.52 M560.1847,1117.294L560.16205,1117.2953Q559.4884,1117.412,559.37305,1117.5195Q559.1335,1117.6444,558.95575,1117.829Q558.6001,1118.1986,558.4911,1118.8074Q558.43445,1119.2185,558.44775,1119.2617L558.5083,1121.0441Q558.602,1121.6215,559.04803,1122.2102L558.9706,1122.3241Q558.4646,1121.5996,557.7103,1121.471Q556.7363,1121.3334,555.6087,1121.5598Q555.4837,1121.5685,555.05005,1121.8959Q554.72406,1122.1918,554.57996,1122.6135Q554.31384,1123.202,554.786,1124.0999Q555.5174,1125.0266,556.6444,1124.8091L557.59766,1125.9476Q557.81146,1126.1625,558.08594,1126.2903L561.6575,1127.5807Q561.80444,1127.6437,562.338,1127.7057L566.9754,1131.3807L567.26215,1131.6615L567.64105,1131.871L568.4922,1132.1996Q568.63837,1132.2656,569.05164,1132.2654Q570.37305,1132.1171,570.8469,1131.4347Q571.6308,1131.8516,572.3608,1131.5891Q573.4037,1131.1581,573.6654,1130.6877Q573.9075,1130.3191,573.98224,1129.7854L574.11694,1127.9174Q574.1454,1127.4492,573.9447,1127.05Q574.1439,1126.6423,574.1183,1126.1967Q574.05304,1125.685,573.91565,1125.4899Q573.7529,1125.1898,573.3796,1124.8448Q572.0058,1123.567,571.2236,1122.9315Q570.9075,1122.6383,568.7335,1122.0902L567.21576,1120.092Q566.9178,1119.754,566.5945,1119.5677L566.2191,1119.3861L562.34247,1117.9484Q562.11646,1117.7375,561.63965,1117.5398L560.5258,1117.311Q560.3562,1117.2852,560.1847,1117.294"/>
</g>
<g style="fill:rgb(255,255,255); fill-opacity:1.0; stroke-linejoin: miter">
<path d="M573.4282,1131.0215L573.4686,1131.0424C573.6225,1131.122,573.7876,1131.1776,573.95825,1131.2072L573.95825,1131.2072Q573.64606,1131.1531,573.4272,1131.0215 Z M564.2099,1121.0509C563.4681,1121.0884,562.8625,1121.5992,562.6704,1122.276L562.6704,1122.276L562.6432,1122.2625C562.5882,1122.2347,562.5318,1122.2103,562.4741,1122.1888Q562.3486,1122.1422,562.207,1122.1044L562.20685,1122.1044Q561.8839,1122.0186,561.4188,1121.9672C561.41235,1121.9664,561.40576,1121.9658,561.3993,1121.9651L559.15393,1121.7434L559.15393,1121.7434L558.9542,1121.6272C558.67285,1121.4634,558.3501,1121.3843,558.0249,1121.3998L556.30927,1121.4805C556.3072,1121.4805,556.30524,1121.4807,556.30316,1121.4807C555.4219,1121.5253,554.72314,1122.2415,554.70044,1123.1241C554.67773,1124.0093,555.342,1124.7612,556.2227,1124.848L558.09,1125.0326L560.295,1126.3163C560.4369,1126.3989,560.59015,1126.4604,560.7499,1126.4989L564.2256,1127.3347L564.2256,1127.3347L565.09015,1127.918C565.12256,1127.9401,565.15576,1127.9606,565.18964,1127.9802L570.3534,1130.965C570.646,1131.134,570.96826,1131.2056,571.2825,1131.1897C571.75745,1131.1655,572.2138,1130.9417,572.52155,1130.552L572.5225,1130.5519L573.29315,1130.9513L573.2921,1130.9515Q573.3481,1131.0265,573.4268,1131.14L573.4268,1131.14C573.52515,1131.2819,573.64465,1131.408,573.78125,1131.5137Q574.42065,1132.0085,575.1282,1131.9728Q575.18567,1131.9698,575.24365,1131.9635L575.2426,1131.9635Q576.3952,1131.897,576.80585,1131.8252L576.80585,1131.8252Q577.6767,1131.6735,578.0878,1131.0049L578.0878,1131.0049Q578.97784,1129.5573,577.52515,1128.6648L577.5251,1128.6646C577.5068,1128.6534,577.4884,1128.6427,577.4697,1128.6322L572.16644,1125.6448L572.16644,1125.6448L571.26953,1124.2919C571.091,1124.0227,570.8391,1123.8103,570.54364,1123.68L567.82324,1122.4795L567.82227,1122.4796Q567.47345,1121.9789,567.20514,1121.7026L567.20514,1121.7026Q566.80133,1121.2863,566.3386,1121.126L566.33765,1121.1262Q565.9132,1120.9647,565.4576,1120.9878L565.4572,1120.9878L564.2099,1121.0509C564.2099,1121.0509,564.2099,1121.0509,564.2099,1121.0509 Z"/>
</g>
<g style="fill:rgb(255,255,255); fill-opacity:1.0; stroke-linejoin: miter">
<path d="M568.47235,1124.9016L568.4574,1124.9023Q567.21484,1125.0604,566.90533,1126.2369Q566.8585,1126.4551,566.87177,1126.6885L567.0058,1128.2322Q567.0876,1128.6993,567.2968,1129.0242Q567.3728,1129.16,567.56726,1129.3567Q568.2889,1129.8911,568.41095,1130.0522L569.6312,1132.1016Q569.7521,1132.5779,570.17426,1133.4149Q570.41736,1133.862,570.74866,1134.2369Q572.1759,1135.7422,574.1781,1137.6652Q575.5134,1138.9847,580.18713,1143.2377Q580.47784,1143.5339,581.0758,1143.6552Q581.74255,1143.747,582.34235,1143.3434Q582.9958,1143.7716,583.6105,1143.7018L585.1621,1143.5168L585.5482,1143.4238Q586.0111,1143.2875,586.4172,1142.697L587.9694,1143.1028Q588.1496,1143.2404,588.58496,1143.3746Q588.83417,1143.4366,589.08746,1143.4237Q590.1154,1143.3114,590.75006,1142.4832Q591.32196,1141.7777,590.8045,1140.6246Q590.6874,1140.4343,590.51654,1140.2747L581.05164,1131.49L579.0755,1129.359Q577.9284,1128.4197,576.92944,1128.6588Q575.9015,1128.8274,575.71155,1129.8844Q574.9825,1128.9584,574.9113,1128.9534Q574.76807,1128.39,574.5544,1128.1713L574.1555,1127.8127Q572.9948,1127.185,572.05023,1128.0337Q571.8411,1127.5966,571.64087,1127.4066L570.3212,1126.2817Q569.86664,1125.425,569.7262,1125.3691Q569.21826,1124.8842,568.47235,1124.9016"/>
</g>
<g style="fill:rgb(255,255,255); fill-opacity:1.0; stroke-linejoin: miter">
<path d="M585.5232,1140.305L585.5232,1140.305L586.8089,1140.2413C586.85254,1140.2393,586.89624,1140.2388,586.9399,1140.2399L586.9399,1140.2399Q587.6067,1140.2589,588.16693,1140.6584L588.167,1140.6586Q588.5028,1140.8983,588.7775,1141.2585L588.7775,1141.2584Q588.8009,1141.2891,588.8241,1141.3209C588.83386,1141.3344,588.84326,1141.3479,588.8526,1141.3616L588.8526,1141.3616L591.2132,1144.8141L590.8361,1144.419Q590.4545,1144.1311,590.07886,1144.1141L590.07886,1144.1141Q590.0993,1144.1151,590.1478,1144.1141L590.1068,1144.1155L591.78076,1144.043C592.70807,1144.0029,593.49414,1144.7184,593.5408,1145.6458C593.5874,1146.5723,592.8772,1147.3634,591.95044,1147.4161L591.95044,1147.4161L591.1083,1147.4646L591.78125,1147.2819Q590.2438,1148.069,589.42615,1146.4712L589.42615,1146.4712Q589.3652,1146.3523,589.31055,1146.2101L589.31055,1146.2101Q589.2926,1146.1633,589.27484,1146.1128C589.2692,1146.0972,589.26404,1146.0814,589.2589,1146.0657L589.2589,1146.0657L588.06384,1142.3295C587.7799,1141.4414,588.26965,1140.4906,589.1582,1140.2067C590.04645,1139.9224,590.9971,1140.4122,591.2814,1141.301L591.2814,1141.301L592.47614,1145.0365L592.46014,1144.9894Q592.46234,1144.9951,592.46344,1144.9982L592.46344,1144.9982Q592.45386,1144.9731,592.433,1144.9325L592.433,1144.9325Q591.7117,1143.523,590.2421,1144.275C590.45135,1144.168,590.6805,1144.1057,590.9151,1144.0924L590.9151,1144.0924L591.7572,1144.0441L591.92694,1147.4172L590.253,1147.4899C590.2392,1147.4906,590.2256,1147.491,590.21185,1147.4913L590.21185,1147.4913Q590.05505,1147.4941,589.9268,1147.4885L589.92676,1147.4885Q589.2562,1147.4584,588.8018,1147.1156C588.65546,1147.005,588.5282,1146.8717,588.4248,1146.7203L588.4248,1146.7203L586.06415,1143.2675L586.09265,1143.308Q586.0923,1143.3075,586.0918,1143.3069L586.0918,1143.3068Q586.12604,1143.3517,586.2048,1143.4078L586.2048,1143.4078Q586.4826,1143.6063,586.8452,1143.6166L586.97614,1143.6152L585.69037,1143.6788C584.7587,1143.725,583.96594,1143.007,583.91986,1142.0754C583.8737,1141.1439,584.59155,1140.3512,585.5232,1140.305 Z"/>
</g>
<g style="fill:rgb(255,255,255); fill-opacity:1.0; stroke-linejoin: miter">
<path d="M591.4778,1140.6849C591.3118,1140.6934,591.1443,1140.7267,590.9801,1140.7869L589.3275,1141.3944C589.3069,1141.4021,589.2864,1141.4099,589.26605,1141.4185Q588.5996,1141.6932,588.28,1142.2437L588.28,1142.2437Q588.0183,1142.6952,588.04456,1143.2135L588.1823,1145.9283C588.2294,1146.8596,589.02295,1147.5768,589.9546,1147.5295C590.886,1147.4822,591.6029,1146.6888,591.55585,1145.7573L591.477,1144.2029L591.477,1144.2029L592.1453,1143.9572C593.02094,1143.6356,593.46967,1142.6648,593.14795,1141.7897C592.88666,1141.0784,592.1967,1140.6483,591.4778,1140.6849 Z"/>
</g>
<g style="fill:rgb(255,255,255); fill-opacity:1.0; stroke-linejoin: miter">
<path d="M588.3004,1144.8721C588.0815,1144.8832,587.8611,1144.9375,587.6513,1145.039L585.5703,1146.0457C585.5475,1146.0568,585.5249,1146.0684,585.50256,1146.0803Q585.3757,1146.149,585.2661,1146.2185L585.26605,1146.2185Q584.7462,1146.5481,584.49,1146.9971L584.48914,1146.9971Q584.19476,1147.4972,584.2242,1148.0758L584.3314,1150.1907C584.37866,1151.1223,585.1721,1151.839,586.10364,1151.792C587.0352,1151.7445,587.7521,1150.9509,587.70483,1150.0194L587.64276,1148.7952L587.64276,1148.7952L589.1222,1148.0798C589.96185,1147.6736,590.3131,1146.6633,589.90704,1145.824C589.60236,1145.1941,588.95795,1144.839,588.3004,1144.8721 Z"/>
</g>
<g style="fill:rgb(255,255,255); fill-opacity:1.0; stroke-linejoin: miter">
<path d="M585.5213,1140.3053C584.78894,1140.3424,584.1893,1140.8405,583.9892,1141.5046L583.9892,1141.5046L583.5628,1141.2954L583.56165,1141.2954C583.54785,1141.2836,583.53375,1141.272,583.5196,1141.2606Q583.3044,1141.0874,583.1003,1140.9615Q582.4121,1140.5374,581.7543,1140.5707Q581.4221,1140.5875,581.0976,1140.721C580.4829,1140.9738,580.0737,1141.5636,580.05194,1142.2278C580.0302,1142.8918,580.4001,1143.5073,580.99664,1143.7993L581.5612,1144.0764L584.57513,1147.1984C584.92804,1147.564,585.40594,1147.7358,585.87646,1147.7122C586.26965,1147.6921,586.6576,1147.5353,586.96313,1147.2405C587.3283,1146.888,587.5005,1146.4109,587.4772,1145.941L587.47595,1145.941C587.4861,1145.8512,587.4889,1145.759,587.48413,1145.6658L587.29346,1141.9064C587.2462,1140.9749,586.4527,1140.2579,585.5213,1140.3053 Z"/>
</g>
<g style="fill:rgb(255,255,255); fill-opacity:1.0; stroke-linejoin: miter">
<path d="M514.149,1185.5616L514.14417,1185.5994Q514.1239,1185.7494,514.09045,1185.883L514.0742,1185.8759Q514.1003,1185.7993,514.1189,1185.7206L514.1249,1185.6945Q514.1307,1185.6681,514.1357,1185.6417Q514.14056,1185.615,514.1447,1185.5885L514.1486,1185.5616L514.149,1185.5616 M520.3327,1194.0297L520.3325,1194.0298L520.33234,1194.0299Q520.33234,1194.0299,520.33234,1194.0299Q520.3325,1194.0298,520.3327,1194.0297 M520.60504,1222.2745L520.60504,1222.2745L520.60504,1222.2745L520.60504,1222.2745L520.60504,1222.2745L520.60504,1222.2745L520.60516,1222.2745L520.60516,1222.2745L520.60516,1222.2745L520.60516,1222.2745L520.60516,1222.2745L520.6046,1222.2747L520.6046,1222.2745L520.60504,1222.2745 M508.6557,1183.4025L508.47913,1183.423Q508.02618,1183.4287,507.40063,1184.2136L504.20532,1189.5223Q501.8106,1191.5919,501.71088,1191.8099Q500.66803,1193.6638,500.1012,1194.3496Q498.50195,1196.1141,498.26184,1196.1953L497.46222,1197.5817L496.255,1198.7655L495.76312,1199.7583Q494.8249,1200.5371,494.64648,1200.8114Q494.03522,1201.5287,494.33063,1202.6299Q494.47668,1203.6084,496.2895,1203.9514Q497.95154,1203.5726,498.8128,1202.4731L498.56573,1203.5476Q498.39935,1203.7106,498.12567,1204.4691Q498.0443,1204.7639,498.04718,1205.0382Q498.05,1205.3127,498.1372,1205.5671L498.78748,1206.8038Q500.52203,1208.509,502.33136,1206.4211Q502.53882,1207.0836,503.10828,1207.4176Q502.899,1208.2986,503.24536,1208.8109Q503.61676,1209.4073,504.2072,1209.5829Q504.9881,1209.825,505.73444,1209.3192Q506.33807,1208.8948,507.75854,1207.1237Q506.67352,1209.2384,506.8495,1209.2917Q506.73956,1210.7726,508.09552,1211.4723L507.20575,1213.1345Q507.07434,1213.428,507.2174,1214.0977Q508.5959,1216.4894,510.85034,1214.0673Q511.15118,1215.4124,512.1315,1215.654Q511.38385,1217.3456,512.68134,1218.0858L511.722,1220.3972Q511.58545,1220.732,511.59338,1221.0793Q511.57086,1221.7588,512.2419,1222.3751Q513.161,1222.9917,514.0382,1222.5549L516.2091,1221.3523Q517.24774,1220.1979,517.7199,1219.8358L520.114,1218.2695L519.9866,1218.6643Q519.81085,1218.715,519.41693,1219.2079Q519.3021,1219.2887,519.2091,1219.9316Q519.139,1220.5728,519.9625,1222.2665Q520.56274,1223.5428,522.61816,1223.4835Q523.0424,1223.4108,523.3379,1223.1383Q523.6337,1222.8661,523.7998,1222.3949L524.32825,1222.0704L524.7032,1221.8735Q525.13257,1221.964,525.5197,1221.8545Q525.8728,1221.7561,526.15326,1221.5237Q526.56824,1221.2289,526.7464,1220.4794Q527.1354,1220.266,527.41925,1219.8002L528.0307,1218.545L532.3017,1215.8099Q532.54486,1215.6531,532.7186,1215.4314Q533.67914,1213.5862,531.8692,1212.7314Q533.0604,1211.8549,532.75793,1210.5059Q532.3559,1209.5692,531.5086,1209.273Q530.9744,1209.1257,530.48425,1209.356Q529.6363,1208.7628,529.04846,1208.7743Q528.3826,1208.7614,527.84326,1209.1698Q527.4431,1208.9374,527.10767,1208.9078Q528.1653,1206.837,528.15594,1205.5764Q528.0956,1204.3419,527.6048,1203.9049Q528.03015,1203.2887,527.8707,1202.539Q527.6765,1201.9012,527.3152,1201.636Q526.61005,1201.1088,526.109,1201.1876Q524.4818,1201.1996,523.7071,1202.1185Q523.33624,1201.8284,522.5502,1201.732L523.9577,1199.9149Q524.2467,1199.1549,524.13007,1198.5867Q523.66907,1197.1964,521.6986,1197.2561Q523.3976,1196.0354,523.21515,1195.3672Q522.8911,1193.3231,520.68036,1193.5262Q521.7205,1192.3086,521.7533,1192.0145Q521.99774,1191.2267,521.53687,1190.5222Q520.1852,1189.0255,518.34424,1190.6204Q517.9895,1189.9381,517.24896,1189.6627Q518.9533,1188.0477,518.8693,1187.8674Q519.2025,1186.6993,518.56335,1186.0767Q517.09845,1184.656,515.1,1186.8457L514.94446,1186.5902Q515.3564,1185.9432,515.1197,1185.141Q514.8351,1184.3718,514.022,1184.0243Q513.068,1183.4436,512.0803,1183.587Q511.6228,1183.661,511.3255,1183.9286Q511.07336,1184.1302,510.80096,1184.7898Q510.71454,1184.7788,510.62573,1184.7769Q510.22266,1183.5654,508.6557,1183.4025"/>
</g>
<g style="fill:rgb(255,255,255); fill-opacity:1.0; stroke-linejoin: miter">
<path d="M528.2912,1208.9697Q528.6071,1209.0157,528.894,1209.1853C528.70276,1209.0725,528.498,1209.0012,528.2906,1208.9697 Z M527.7614,1208.9728C527.3021,1209.0482,526.87646,1209.3124,526.60846,1209.7351C526.60785,1209.736,526.60724,1209.7369,526.6066,1209.7379L526.60614,1209.7379Q526.556,1209.7858,526.48596,1209.8497L526.48596,1209.8497Q526.76056,1209.0992,527.7609,1208.9728 Z M526.481,1209.9769L526.481,1209.9769C526.4476,1210.0549,526.42053,1210.1344,526.3997,1210.2151L526.3997,1210.2151Q526.40704,1210.157,526.4174,1210.1019L526.41693,1210.102Q526.44604,1210.04,526.48047,1209.9769 Z M526.3712,1210.2083Q526.3751,1210.2667,526.3778,1210.3135L526.3773,1210.3135C526.2523,1210.9507,526.5033,1211.6271,527.06323,1212.0206L527.06305,1212.0206Q525.95123,1211.2522,526.37067,1210.2083 Z M527.9634,1208.2957C527.94916,1208.2964,527.9349,1208.2974,527.92053,1208.2983C527.03937,1208.3652,526.3675,1209.0969,526.35913,1209.9644L526.35864,1209.9644Q526.3169,1210.002,526.27057,1210.043L526.27057,1210.043Q526.0736,1210.2169,525.89764,1210.476L525.8976,1210.476Q525.8165,1210.5953,525.72406,1210.754C525.7074,1210.7832,525.6916,1210.8124,525.6765,1210.8422Q525.5984,1210.9966,525.554,1211.095L525.554,1211.095Q525.51825,1211.174,525.49133,1211.2457L525.49084,1211.2457L524.4054,1213.9017C524.38416,1213.9539,524.36554,1214.0066,524.34955,1214.0604Q524.2594,1214.365,524.19116,1214.7638L524.19116,1214.7638L523.35474,1219.6652C523.1978,1220.5846,523.816,1221.457,524.73553,1221.6141C524.8607,1221.6355,524.9851,1221.6426,525.10675,1221.6365C525.8794,1221.5973,526.5491,1221.0278,526.6845,1220.2334L527.52094,1215.3319L527.52094,1215.3319Q527.5457,1215.1871,527.5697,1215.0889L527.5692,1215.0889L528.63403,1212.4836C528.635,1212.4816,528.6358,1212.4795,528.63666,1212.4774L528.63617,1212.4774Q528.6419,1212.4651,528.65094,1212.4465L528.65045,1212.4465Q528.8993,1212.2222,529.06256,1212.0587L529.062,1212.0587Q529.51294,1211.7721,529.6728,1211.187L529.67224,1211.187Q529.9162,1210.6234,529.7515,1210.1423L529.75104,1210.1423Q529.74414,1210.0107,529.7323,1209.8549C529.6629,1208.9392,528.87555,1208.2494,527.9634,1208.2957 Z"/>
</g>
<g style="fill:rgb(255,255,255); fill-opacity:1.0; stroke-linejoin: miter">
<path d="M533.0621,1206.9459Q532.80383,1207.2186,532.3622,1207.3445L532.3622,1207.3445C532.6335,1207.2672,532.87036,1207.1277,533.0615,1206.9459 Z M532.2398,1208.3458Q532.1215,1208.4464,531.97797,1208.523L531.97797,1208.523C532.07025,1208.4724,532.15765,1208.413,532.2392,1208.3461 Z M529.55725,1207.564C529.76624,1208.2095,530.34344,1208.6697,531.02374,1208.7264C531.0998,1208.7327,531.17535,1208.7341,531.25006,1208.7302C531.32135,1208.7266,531.3918,1208.7185,531.4612,1208.706L531.4618,1208.706Q531.2471,1208.7551,531.0543,1208.7649Q529.9399,1208.8213,529.55676,1207.564 Z M526.6131,1212.6763C526.85583,1213.2573,527.40314,1213.6569,528.03394,1213.7083C528.1089,1213.7144,528.1835,1213.7158,528.2573,1213.7119C528.3502,1213.7074,528.44196,1213.6951,528.53156,1213.6755L528.53204,1213.6755Q528.2778,1213.7489,528.0516,1213.7601Q527.06445,1213.8103,526.61255,1212.6764 Z M531.8151,1204.0328C531.6895,1204.0391,531.5626,1204.0598,531.4365,1204.096Q530.7972,1204.2778,530.3727,1204.9221L530.3727,1204.9221Q530.1469,1205.2643,529.74207,1206.1027L529.7416,1206.1027Q529.7342,1206.1124,529.7268,1206.1226L529.7268,1206.1226Q529.2914,1206.721,526.81085,1211.0042L526.81036,1211.0042Q526.6747,1211.1813,526.57,1211.4037L526.57,1211.4037Q526.23883,1212.1072,524.84174,1216.3633C524.55084,1217.2495,525.0335,1218.2039,525.9198,1218.4946C526.12305,1218.5614,526.3301,1218.5876,526.53174,1218.5774C527.209,1218.5427,527.8269,1218.0995,528.05115,1217.4166Q529.2571,1213.7424,529.5702,1212.9723L529.56964,1212.9723C529.592,1212.9395,529.61316,1212.9055,529.6333,1212.8708Q531.9378,1208.8887,532.39746,1208.1976L532.397,1208.1976C532.51416,1208.0726,532.61346,1207.9282,532.6896,1207.7678Q533.0036,1207.1069,533.1424,1206.8641L533.1418,1206.8641C533.5262,1206.4459,533.69055,1205.8438,533.5233,1205.2572C533.3037,1204.4866,532.58276,1203.9943,531.8151,1204.0328 Z"/>
</g>
<g style="fill:rgb(255,255,255); fill-opacity:1.0; stroke-linejoin: miter">
<path d="M543.0905,1191.2456L543.0248,1191.2496Q542.169,1191.2603,541.46655,1191.8956L539.00543,1195.1736L538.6013,1195.8678L534.5742,1200.2557Q534.2933,1200.5605,534.2291,1201.2523Q534.28467,1202.7417,535.87134,1203.0085L534.9492,1204.183Q534.82043,1204.3611,534.7401,1204.8425Q534.69366,1205.88,535.4878,1206.4486Q536.0067,1206.7277,536.16534,1206.7303Q536.73285,1206.8522,537.4006,1206.8071Q538.1811,1206.6868,538.67645,1206.0703Q538.9657,1206.5026,539.07495,1206.5392Q539.40485,1206.7894,539.9063,1206.8732Q540.13446,1206.9153,540.4957,1206.9153L543.1581,1206.8197Q543.8945,1206.7787,544.40454,1206.1774Q544.85187,1205.6031,545.0056,1204.4882Q545.13165,1204.3589,545.19507,1204.2693L547.80286,1202.8186Q548.0758,1202.6342,548.26263,1202.3624Q548.4347,1202.1514,548.57886,1201.6108L549.2902,1197.448Q549.07117,1195.6364,547.7837,1195.5795L548.11414,1195.022Q548.722,1194.4453,548.8172,1194.2527Q549.1447,1193.6641,549.1289,1193.5333Q549.26294,1192.378,548.6292,1191.7113Q547.9709,1190.9894,546.79156,1191.3176Q546.4031,1191.4731,546.12695,1191.7961Q546.1506,1191.6875,545.42676,1192.9315L545.11237,1193.245Q545.1719,1193.1251,545.10034,1192.563Q544.9981,1192.1234,544.7024,1191.7981Q544.06134,1191.1343,543.0905,1191.2456"/>
</g>
<g style="fill:rgb(255,255,255); fill-opacity:1.0; stroke-linejoin: miter">
<path d="M551.5721,1182.2205L551.5721,1182.2205Q551.5091,1182.271,551.45105,1182.3278Q551.4629,1182.3157,551.47546,1182.3036Q551.4881,1182.2916,551.50134,1182.2798L551.51465,1182.268Q551.56995,1182.2205,551.5721,1182.2205 M555.6942,1182.5157L555.7009,1182.6407L555.6978,1182.7621L555.68506,1182.8798L555.6625,1182.9941L555.6302,1183.1049L555.58813,1183.2123L555.53656,1183.316L555.47504,1183.4163L555.40375,1183.5128Q555.5036,1183.3276,555.5497,1183.2172L555.5752,1183.1514Q555.5993,1183.0848,555.6177,1183.0171Q555.65466,1182.8813,555.6686,1182.742Q555.6756,1182.6722,555.67676,1182.6023L555.67645,1182.5322L555.6757,1182.5325L555.6942,1182.5157 M554.9215,1178.4595L554.8777,1178.4622Q554.2471,1178.5155,553.79694,1178.9662L553.52734,1179.3285L552.828,1180.5675L551.9102,1181.4216L551.70984,1181.6633Q551.6368,1181.718,551.35297,1182.4242L549.41614,1184.3225Q549.1927,1184.557,548.6364,1185.5748Q548.1111,1185.8461,547.80145,1186.1764L546.7975,1187.5139L545.1544,1189.1228Q544.92053,1189.4448,544.7613,1189.7651Q544.6215,1190.0217,544.3822,1190.6378L543.0191,1193.2147Q542.2548,1193.8656,542.09125,1194.3479Q541.96136,1194.6956,541.99,1195.074Q542.1125,1196.6537,542.21783,1196.928Q542.39154,1197.6023,543.18604,1198.097Q544.14606,1198.616,545.106,1197.6232Q546.0856,1198.0935,546.9384,1197.6195Q547.421,1198.049,548.1372,1198.0361Q548.5869,1198.0437,549.1287,1197.6503L551.02295,1195.48L553.52374,1194.659Q553.7288,1194.5925,554.0297,1194.3699Q554.60364,1194.0055,555.4349,1192.2239L558.7919,1190.34Q559.1572,1190.136,559.4331,1189.4922Q559.80896,1188.5168,558.7684,1187.3745Q558.46625,1186.846,556.43665,1186.7125Q555.98865,1186.7023,555.76166,1186.7615Q555.6206,1186.7825,555.3446,1186.9023L554.8833,1186.9419L554.47626,1187.0912Q553.9568,1187.3534,553.6663,1187.9812Q552.3304,1188.3167,551.4163,1189.1859L552.4155,1187.4232Q552.8452,1187.1,553.1046,1186.7618Q553.0773,1186.8854,553.78876,1185.637Q554.5186,1185.0258,554.70703,1184.6978Q555.08356,1184.1348,555.3578,1183.5983Q556.3383,1182.9622,556.45197,1182.4159Q556.61224,1181.8795,556.54376,1181.4889Q556.7157,1181.083,556.72516,1180.5702Q556.7067,1179.7494,556.55676,1179.4786Q556.06665,1178.4628,554.9215,1178.4595"/>
</g>
<g style="fill:rgb(255,255,255); fill-opacity:1.0; stroke-linejoin: miter">
<path d="M563.0237,1171.1388L563.106,1171.1562L563.1871,1171.1781L563.26685,1171.2043L563.34515,1171.2347L563.42224,1171.2698Q563.5753,1171.3439,563.7177,1171.4526Q563.5589,1171.3319,563.38336,1171.2535L563.32465,1171.2284Q563.26575,1171.2048,563.20544,1171.1858L563.145,1171.1677L563.08405,1171.1522L563.02277,1171.1388L563.0237,1171.1388 M562.3188,1171.1482L562.24335,1171.1671Q562.09296,1171.2084,561.9509,1171.2777Q561.8802,1171.3123,561.8124,1171.3536L561.7453,1171.3969Q561.67914,1171.4419,561.6165,1171.4937L561.555,1171.5471L561.49554,1171.604L561.216,1171.8856L561.2864,1171.7583L561.3696,1171.6421L561.46594,1171.5376L561.5753,1171.4441L561.6978,1171.3623L561.83325,1171.2917L561.9817,1171.2325L562.14325,1171.1847L562.3188,1171.1482 M562.70734,1175.5098L562.7191,1175.5436Q562.7646,1175.6797,562.784,1175.8275Q562.77014,1175.7498,562.74915,1175.674L562.742,1175.6486Q562.7346,1175.6235,562.7265,1175.5988Q562.70593,1175.5369,562.6996,1175.525L562.7065,1175.5098L562.70734,1175.5098 M562.6955,1176.7374L562.65393,1176.8625L562.60596,1176.9795L562.5518,1177.0884L562.4912,1177.1895L562.42426,1177.2821L562.3511,1177.3672L562.27136,1177.4438L562.1853,1177.5126L562.0929,1177.5732L562.3848,1177.2438Q562.40314,1177.226,562.4796,1177.127Q562.539,1177.0466,562.58813,1176.9602Q562.61273,1176.9171,562.6347,1176.8729Q562.647,1176.8514,562.6955,1176.7374 M555.85626,1188.444L555.85614,1188.517L555.8532,1188.5881L555.84753,1188.6576L555.839,1188.7253L555.8278,1188.7911L555.81384,1188.8555L555.7971,1188.918L555.7776,1188.9788L555.75525,1189.0376L555.7922,1188.9077L555.80237,1188.8698Q555.82184,1188.7938,555.8342,1188.7167Q555.84045,1188.6779,555.8448,1188.6389L555.8487,1188.6001Q555.8522,1188.5614,555.85394,1188.5222Q555.85565,1188.4832,555.85547,1188.444L555.85626,1188.444 M562.6222,1169.9349L562.57635,1169.938Q561.92706,1169.925,561.2943,1170.6964Q560.9274,1171.223,561.04517,1172.0581L560.15515,1173.0032L559.31946,1174.7991Q558.37616,1174.2899,557.45496,1174.9065L552.3784,1179.7786Q551.9487,1180.1864,551.2417,1181.3472L548.6947,1183.789Q548.1866,1184.4625,547.80237,1185.6433L546.4487,1187.2115Q546.3061,1187.3776,546.21313,1187.566Q545.90155,1188.0532,546.16626,1188.9601Q546.4501,1189.6898,547.34436,1189.9598Q547.8857,1190.097,548.48236,1189.8259L550.34735,1188.3761L550.2494,1189.208Q549.8975,1189.6349,549.86163,1190.1956L549.9732,1191.826Q549.9878,1192.0117,550.0398,1192.1836Q550.39154,1193.5275,551.98804,1193.676Q552.5152,1193.6493,553.0029,1193.2462L554.87335,1191.3092Q555.1724,1191.0353,555.7125,1189.1837L556.79175,1188.1511Q556.8861,1188.0608,557.0137,1187.8652L559.44476,1182.9541Q560.2081,1182.1787,560.24146,1182.0002Q560.5695,1181.4196,560.4276,1180.5289L563.45605,1177.5037Q563.80444,1177.1005,563.9092,1176.8414Q564.39166,1175.6252,563.1153,1174.7655L564.0318,1173.9418Q564.3052,1173.541,564.31616,1173.4142Q564.54236,1172.8992,564.35846,1171.2681Q564.2004,1170.5969,563.65326,1170.2227Q562.9913,1169.8625,562.6222,1169.9349"/>
</g>
<g style="fill:rgb(255,255,255); fill-opacity:1.0; stroke-linejoin: miter">
<path d="M570.52954,1165.4668L570.48505,1165.4698Q569.0276,1165.5208,568.8061,1165.7449L568.467,1165.9867Q568.2602,1166.176,568.1232,1166.4271L567.654,1166.7954Q567.1287,1167.159,565.4741,1168.0845Q565.08997,1168.3898,564.82336,1168.8064L563.7127,1170.7764L561.4044,1172.3583L561.14636,1172.5759Q560.942,1172.8014,560.8687,1172.9574L557.7019,1178.9021Q557.3796,1179.5612,557.47125,1180.0802Q557.67633,1180.6987,557.8415,1180.7803Q558.04266,1180.9874,558.347,1181.1592Q557.9606,1182.4244,558.02686,1182.4401Q558.06586,1183.1667,558.2865,1183.4524Q558.6145,1184.0022,559.33374,1184.2905Q561.188,1184.932,561.32684,1184.7867Q561.8889,1184.8328,562.6229,1184.1593Q562.75397,1184.0322,562.96954,1183.6951L564.00885,1181.7654L566.6804,1181.323L567.048,1181.2189Q567.60144,1181.0283,567.99506,1180.2738Q568.48694,1178.8866,567.3082,1178.0994L567.8679,1177.1522L568.1207,1176.1202Q568.1451,1175.772,568.08606,1175.6105L568.30646,1173.1417Q568.48004,1172.7416,568.4858,1172.0636Q568.46735,1170.9136,568.0405,1170.5052Q569.98004,1169.3723,570.45807,1168.86Q570.92487,1168.9086,571.576,1168.5427Q572.1287,1168.1515,572.2726,1167.4769Q572.33167,1167.3698,572.26636,1166.8009Q572.1679,1166.3593,571.88007,1166.0355Q571.1563,1165.373,570.52954,1165.4668"/>
</g>
<g style="fill:rgb(255,255,255); fill-opacity:1.0; stroke-linejoin: miter">
<path d="M578.23206,1156.9425C578.20685,1156.9438,578.1815,1156.9457,578.15625,1156.9481L577.10986,1157.0479C576.6525,1157.0912,576.2324,1157.3191,575.9469,1157.6793Q575.6988,1157.9917,575.5733,1158.1002L575.57227,1158.1002L575.24255,1158.3016L575.24255,1158.3016Q575.1682,1158.2131,575.08307,1158.126L575.08307,1158.126C574.7478,1157.7827,574.28253,1157.5983,573.8034,1157.6183C573.7986,1157.6185,573.7939,1157.6188,573.7892,1157.6189C573.3154,1157.6433,572.8733,1157.8657,572.57135,1158.232L570.04193,1161.302L570.04095,1161.3022Q569.2294,1162.135,568.19293,1163.2267L568.192,1163.2269Q567.6423,1163.6171,567.38403,1163.8553L567.38403,1163.8553Q567.24,1163.9883,567.13165,1164.1217L567.1307,1164.1217L566.8546,1164.431L566.8537,1164.431C566.71954,1164.5088,566.5966,1164.6049,566.4884,1164.7161L563.27856,1168.017C563.1212,1168.1791,562.99896,1168.3701,562.91736,1168.5776L562.91644,1168.5776Q562.5241,1169.1294,560.5906,1171.0098C560.5704,1171.0293,560.5506,1171.0496,560.53143,1171.0701Q560.47437,1171.1316,560.4181,1171.1989L560.4181,1171.1989Q560.03766,1171.6548,559.60547,1172.5383L559.6046,1172.5383L558.18555,1174.1135C557.5616,1174.8066,557.6172,1175.8744,558.30975,1176.4987C558.6556,1176.8103,559.09485,1176.9526,559.526,1176.9309C559.958,1176.9089,560.3818,1176.7222,560.6945,1176.3756Q565.8213,1170.6935,569.6246,1166.7466L569.62366,1166.7466Q569.97797,1166.532,570.1721,1166.3838L570.1721,1166.3838Q570.5014,1166.1324,570.70215,1165.8608L570.7012,1165.8608Q570.97644,1165.6803,571.3524,1165.4418C571.41766,1165.4004,571.48,1165.3546,571.53906,1165.3049L574.8713,1162.4872L574.8713,1162.4872L577.41644,1160.932C577.45166,1160.9103,577.48615,1160.8875,577.51984,1160.8634Q577.5604,1160.8339,577.601,1160.8029L577.601,1160.8029Q577.8408,1160.619,578.102,1160.3461L578.10095,1160.3463L578.4763,1160.3105C579.4049,1160.2222,580.0859,1159.3977,579.9975,1158.4691C579.9116,1157.566,579.1293,1156.8972,578.23206,1156.9425 Z"/>
</g>
<g style="fill:rgb(255,255,255); fill-opacity:1.0; stroke-linejoin: miter">
<path d="M577.7741,1157.3894L577.6753,1157.397Q577.13043,1157.484,576.84247,1157.7283L575.1853,1159.3212L573.7615,1159.9774Q573.4852,1160.1267,573.37415,1160.2267Q572.9938,1160.4926,572.10913,1161.7701L570.82465,1162.7001Q570.71106,1162.7875,570.61395,1162.8923L567.02295,1168.0496Q566.8364,1168.3236,566.77264,1168.7637Q565.8353,1169.735,565.77344,1169.8969Q565.4331,1170.435,565.3494,1170.963Q565.21606,1172.5383,566.7279,1173.009L568.26605,1173.0519Q568.38135,1173.058,568.6362,1172.9954Q569.47565,1172.6753,569.7565,1172.2583L572.6101,1171.3623Q572.8823,1171.2771,573.1895,1171.0125Q573.37616,1172.4999,574.9632,1172.6045Q575.8838,1172.5221,576.3393,1171.7626Q576.5619,1171.2877,576.5475,1171.1661L576.59753,1169.11Q577.82074,1168.7626,578.03937,1167.9248Q578.2408,1167.4851,577.99005,1166.7166Q577.6996,1166.0557,576.9947,1165.7906L577.5547,1164.4297L578.84076,1164.345Q579.0643,1164.3016,579.262,1164.2048Q579.6615,1164.0066,579.91254,1163.6448Q580.1801,1163.172,580.17236,1163.0469Q580.24023,1162.4829,580.18066,1162.3674Q580.09033,1161.9175,579.8028,1161.585Q579.0924,1160.9032,578.40594,1161.001L579.25806,1160.0242Q579.38257,1159.8401,579.4538,1159.637Q579.6661,1159.0056,579.40515,1158.3928Q578.9074,1157.3875,577.7741,1157.3894"/>
</g>
<g style="fill:rgb(255,255,255); fill-opacity:1.0; stroke-linejoin: miter">
<path d="M569.5826,1161.2583L569.3094,1161.6825Q569.1903,1161.8676,569.1225,1162.0768Q569.15955,1161.9598,569.20294,1161.8544Q569.2462,1161.7493,569.29565,1161.6553L569.34674,1161.5645Q569.45135,1161.3883,569.5826,1161.2583 M581.6695,1144.5674L581.4463,1144.5936Q580.77423,1144.7324,580.3844,1145.2686Q579.91864,1145.9431,580.08673,1147.1173Q579.4186,1147.5597,579.2615,1147.8373L578.2627,1149.9425Q577.2261,1150.8053,576.84784,1151.2943L575.8945,1152.8474Q575.5174,1153.1588,575.1766,1153.69Q575.00354,1153.9108,574.73047,1154.7555Q574.06464,1155.1063,573.36786,1155.6525Q572.91406,1156.0046,572.54877,1156.6517L571.7872,1157.2775Q571.61066,1157.2803,570.98236,1159.0844L570.64124,1159.6138Q569.1954,1160.6471,568.9654,1161.514Q568.912,1161.6047,568.90234,1162.0977Q568.9918,1162.9875,569.1466,1163.2883Q569.40936,1163.9012,570.00055,1164.161Q570.99225,1164.5642,571.667,1164.1356Q572.01025,1163.848,572.05096,1163.7366Q571.9656,1163.7598,573.00946,1162.1768Q572.7848,1163.2327,573.6924,1163.9554Q574.0367,1164.3662,576.09753,1164.291Q576.53485,1164.2819,577.12897,1163.8644Q577.3451,1163.6896,577.7504,1162.9778Q578.7646,1163.748,579.7462,1163.3479Q580.33234,1163.068,580.8,1161.7325L582.15826,1160.704L585.96216,1160.0028Q586.0589,1160.0067,586.4506,1159.8325Q586.704,1159.7378,587.0683,1159.2683Q587.2571,1158.9827,587.3185,1158.6333Q587.86584,1158.1108,587.90405,1157.8143Q588.01385,1157.3376,587.9809,1157.2219L587.66656,1155.2483Q587.7596,1154.9751,587.7655,1154.6853L587.75006,1150.6378Q587.7323,1149.8682,587.4497,1149.3558Q587.18024,1148.876,586.92346,1148.7395Q586.8021,1148.3066,586.5264,1147.9645Q585.5886,1146.7776,585.4956,1146.8411Q584.443,1146.2372,583.46277,1147.0013Q583.5705,1144.5973,581.6695,1144.5674"/>
</g>
<g style="fill:rgb(9,31,100); fill-opacity:1.0; stroke-linejoin: miter">
<path d="M509.04285,1165.8855L509.04285,1165.8855L509.0428,1165.8856C508.9508,1166.0797,508.71893,1166.1625,508.5249,1166.0704C508.3308,1165.9786,508.24792,1165.7466,508.34003,1165.5527L508.34003,1165.5527L508.34003,1165.5527C508.4319,1165.3585,508.6637,1165.2758,508.85785,1165.3676C509.05194,1165.4597,509.1347,1165.6915,509.04285,1165.8855 Z"/>
</g>
<g style="fill:rgb(9,31,100); fill-opacity:1.0; stroke-linejoin: miter">
<path d="M510.8698,1164.67L510.8698,1164.67L510.8698,1164.67C511.2616,1165.3174,511.17462,1166.1469,510.65698,1166.6993L510.65698,1166.6993C504.22253,1173.5632,497.88232,1180.3304,493.6172,1185.9836L493.6172,1185.9836C489.31628,1191.6848,487.37305,1195.9443,487.36102,1199.2068L487.36102,1199.2068C487.3496,1202.2537,488.9925,1204.8298,495.29996,1211.2224L495.29996,1211.2224C501.56705,1217.5739,511.55005,1226.855,518.56213,1229.8256L518.56213,1229.8256C523.3858,1231.8691,526.7109,1230.8467,529.87933,1228.9296L529.87933,1228.9296C531.04034,1228.2269,532.1651,1227.4105,533.3577,1226.5438L533.0644,1226.8157L543.193,1214.9092L543.0991,1216.9772L507.85114,1166.9934C507.31372,1166.2311,507.49573,1165.1772,508.25812,1164.6399C509.02045,1164.1023,510.07416,1164.2847,510.6117,1165.0466L510.6117,1165.0466L545.8598,1215.0304C546.304,1215.6603,546.2653,1216.511,545.76587,1217.0984L545.76587,1217.0984L535.6371,1229.004C535.55054,1229.1062,535.452,1229.1973,535.34375,1229.2759L535.34375,1229.2759C534.1718,1230.1278,532.9317,1231.0306,531.62787,1231.8196L531.62787,1231.8196C527.8031,1234.1337,523.32623,1235.5121,517.24445,1232.9357L517.24445,1232.9357C509.50714,1229.658,499.0637,1219.8461,492.89554,1213.5947L492.89554,1213.5947C486.76746,1207.384,483.96582,1203.8468,483.98315,1199.1942L483.98315,1199.1942C483.99963,1194.7568,486.55835,1189.7314,490.92065,1183.9496L490.92065,1183.9496C495.31866,1178.1195,501.80255,1171.2059,508.19263,1164.3893L507.97968,1166.4186L507.97968,1166.4183C507.49695,1165.6205,507.75238,1164.5822,508.55048,1164.0994C509.34845,1163.6165,510.3869,1163.8721,510.8698,1164.67 Z"/>
</g>
<g style="fill:rgb(9,31,100); fill-opacity:1.0; stroke-linejoin: miter">
<path d="M509.5572,1181.4918L509.5572,1181.4918L532.77466,1212.6425C533.24615,1213.275,533.21686,1214.1498,532.70404,1214.7495L532.70404,1214.7495L524.3368,1224.5336C524.0359,1224.8854,523.6039,1225.0983,523.1417,1225.1224C522.67957,1225.1469,522.2278,1224.9806,521.8917,1224.6621L521.8917,1224.6621L493.95697,1198.2053C493.2909,1197.5742,493.2503,1196.5273,493.86542,1195.8464L493.86542,1195.8464L506.94995,1181.3685C507.28864,1180.9935,507.77777,1180.79,508.28253,1180.8137C508.78748,1180.8378,509.25507,1181.0864,509.5572,1181.4918L509.5572,1181.4918 M506.8487,1183.5101L509.45593,1183.6333L496.37146,1198.1112L496.2798,1195.7527L524.21466,1222.2098L521.76953,1222.3381L530.13684,1212.5538L530.0663,1214.661L506.8487,1183.5101 Z"/>
</g>
<g style="fill:rgb(9,31,100); fill-opacity:1.0; stroke-linejoin: miter">
<path d="M536.61554,1200.0377L536.61554,1200.0377L536.61554,1200.0377L533.6728,1198.7211L580.8238,1145.3561C581.44147,1144.6572,582.5087,1144.591,583.20776,1145.2087C583.9068,1145.8264,583.97266,1146.8936,583.3551,1147.5928L583.3551,1147.5928L536.204,1200.9574C535.71484,1201.5109,534.9228,1201.6826,534.2486,1201.3809C533.57434,1201.0792,533.1743,1200.3743,533.261,1199.6405L533.261,1199.6405L533.2611,1199.6405C533.3708,1198.7144,534.2105,1198.0522,535.1367,1198.1617C536.0631,1198.2716,536.7252,1199.1115,536.61554,1200.0377 Z"/>
</g>
<g style="fill:rgb(9,31,100); fill-opacity:1.0; stroke-linejoin: miter">
<path d="M540.8188,1208.5032L540.8188,1208.5032L540.8187,1208.5032L539.01013,1205.8793L546.93054,1203.7242L545.6885,1205.2433L546.29297,1196.0187C546.3378,1195.3325,546.79407,1194.7422,547.4468,1194.5256L547.4468,1194.5256L556.59937,1191.4924L555.4732,1192.7705L557.38245,1183.0283C557.53076,1182.2722,558.1721,1181.712,558.9412,1181.6669L558.9412,1181.6669L566.4805,1181.2261L564.9362,1182.5201L567.2341,1172.8864C567.37836,1172.2809,567.844,1171.8042,568.44574,1171.6455L568.44574,1171.6455L577.6551,1169.2129L576.3984,1170.7887L576.686,1162.2682C576.7099,1161.5626,577.1701,1160.9465,577.8397,1160.7227L577.8397,1160.7227L586.5396,1157.8218L585.4043,1159.1694L586.6778,1150.8191L587.20984,1152.3219L562.4442,1129.7587L562.9101,1130.0598L557.117,1127.5498L558.99756,1127.1794L554.8117,1131.471L554.876,1131.4012L517.2982,1174.5208C516.6855,1175.2242,515.61847,1175.2971,514.91534,1174.6844C514.2121,1174.0717,514.13873,1173.0046,514.7518,1172.3016L514.7518,1172.3016L552.32935,1129.1821C552.35016,1129.1582,552.3715,1129.135,552.3936,1129.1123L552.3936,1129.1123L556.5795,1124.821C557.06885,1124.3195,557.817,1124.172,558.45996,1124.4507L558.45996,1124.4507L564.2531,1126.9607C564.424,1127.0348,564.5815,1127.1365,564.7191,1127.2618L564.7191,1127.2618L589.4848,1149.8254C589.90247,1150.2059,590.1022,1150.77,590.017,1151.3286L590.017,1151.3286L588.74365,1159.679C588.6481,1160.3057,588.20953,1160.8259,587.6081,1161.0264L587.6081,1161.0264L578.9082,1163.9275L580.06177,1162.3818L579.77435,1170.903C579.74915,1171.6478,579.2384,1172.2883,578.51764,1172.4785L578.51764,1172.4785L569.3083,1174.9111L570.51984,1173.67L568.22186,1183.304C568.0491,1184.0288,567.4216,1184.5546,566.6777,1184.5983L566.6777,1184.5983L559.13837,1185.0391L560.6973,1183.6779L558.78827,1193.4203C558.6709,1194.0181,558.24066,1194.5068,557.6621,1194.6984L557.6621,1194.6984L548.5095,1197.732L549.6636,1196.2396L549.0592,1205.4642C549.0122,1206.184,548.5131,1206.794,547.8172,1206.9834L547.8172,1206.9834L539.8968,1209.1383C539.205,1209.3268,538.4697,1209.0575,538.0629,1208.4674C537.65594,1207.877,537.6661,1207.0941,538.0882,1206.5146L538.0882,1206.5146L538.0882,1206.5146C538.6373,1205.7605,539.6936,1205.5942,540.4477,1206.1434C541.20166,1206.6925,541.36786,1207.7489,540.8188,1208.5032 Z"/>
</g>
<g style="fill:rgb(9,31,100); fill-opacity:1.0; stroke-linejoin: miter">
<path d="M589.9211,1151.2119L589.9211,1151.2119L589.9211,1151.2119L587.2832,1149.1018L593.2327,1141.6697L593.4595,1144.0137L564.58264,1119.5485L565.1203,1119.8551C562.0991,1118.8057,559.5999,1117.9768,557.20905,1118.3744L557.2091,1118.3744C554.76636,1118.7805,552.2372,1120.4883,549.2789,1122.5342L549.59064,1122.2559L510.09595,1167.4889C509.48248,1168.1917,508.41565,1168.264,507.71283,1167.6505C507.01038,1167.0372,506.9381,1165.9702,507.55145,1165.2672L507.55145,1165.2672L547.0462,1120.0343C547.1382,1119.929,547.24274,1119.8352,547.3578,1119.7557L547.3578,1119.7557C550.1206,1117.8458,553.31274,1115.5979,556.6554,1115.0425L556.6554,1115.0425C560.0498,1114.478,563.4004,1115.682,566.2289,1116.6647C566.42535,1116.7328,566.60754,1116.8368,566.7663,1116.9713L566.7663,1116.9713L595.6429,1141.4363C596.34064,1142.0276,596.4411,1143.0665,595.86975,1143.7803L595.86975,1143.7803L589.92035,1151.2128C589.3376,1151.9409,588.27515,1152.0587,587.54694,1151.4763C586.81866,1150.8938,586.7004,1149.831,587.2826,1149.1028L587.2826,1149.1028L587.2826,1149.1028C587.8651,1148.3744,588.9279,1148.2559,589.65643,1148.8383C590.385,1149.4207,590.50354,1150.4834,589.9211,1151.2119 Z"/>
</g>
<g style="fill:rgb(9,31,100); fill-opacity:0.011764706; stroke-linejoin: miter">
<path d="M509.55945,1166.1824L509.55945,1166.1824L490.51013,1191.5505Q490.71582,1195.607,490.9214,1199.6636Q492.94977,1199.5609,494.9781,1199.4581L509.55945,1166.1824"/>
</g>
<g style="fill:rgb(9,31,100); fill-opacity:1.0; stroke-linejoin: miter">
<path d="M506.1198,1178.5577L505.31866,1178.7805Q501.70135,1179.7692,500.2115,1180.8661Q499.5982,1181.2865,499.09247,1181.8202L498.61945,1182.3887Q498.16663,1183.0157,497.89612,1183.6838Q496.77173,1186.7506,497.51178,1189.4839Q497.95477,1190.7751,498.51093,1191.071Q498.45605,1191.0958,499.07104,1191.2936L499.57367,1191.3107L500.1264,1191.2026Q502.149,1190.6064,506.53107,1186.671Q509.56866,1178.7925,510.2857,1178.2551Q510.58234,1178.0767,510.59973,1179.021Q510.65027,1179.4901,510.38208,1182.4088L514.233,1178.1466L514.43884,1182.2032L506.1198,1178.5577"/>
</g>
<g style="fill:rgb(9,31,100); fill-opacity:1.0; stroke-linejoin: miter">
<path d="M521.1909,1222.5791L521.16046,1222.585Q521.04297,1222.626,520.9989,1222.9436L520.78656,1226.0819Q520.747,1226.1578,520.5498,1226.2076L519.03845,1226.4939Q518.66675,1226.7761,518.4026,1227.7451Q518.4054,1227.9215,518.564,1228.1272L520.95197,1230.6654L533.1331,1230.06L533.0664,1228.7743Q533.0311,1228.5933,532.93933,1228.4991Q532.8504,1228.3903,532.62506,1228.2505L530.18286,1226.921Q530.07227,1226.8279,529.6651,1225.5947Q529.51587,1225.358,529.1352,1225.1031L525.178,1222.7109Q525.1264,1222.6803,524.46765,1222.6562L521.1909,1222.5791"/>
</g>
<g style="fill:rgb(9,31,100); fill-opacity:1.0; stroke-linejoin: miter">
<path d="M520.614,1226.6346L517.1791,1226.9703Q516.8131,1227.0214,516.81946,1227.0734L518.1335,1230.5848Q518.2363,1230.8174,518.2695,1230.8021L529.0765,1230.2657L520.614,1226.6346"/>
</g>
<g style="fill:rgb(9,31,100); fill-opacity:1.0; stroke-linejoin: miter">
<path d="M514.661,1222.8446L514.474,1222.8542L513.0365,1222.9451Q512.9918,1222.9502,512.95886,1223.0254Q512.9054,1223.1813,512.8951,1223.3232L512.65717,1226.9274Q513.26117,1227.1228,513.4559,1227.3392L516.69775,1230.6598Q516.7824,1230.6938,517.3406,1230.6987L520.8546,1230.6768L529.0765,1230.2657L528.9195,1228.2349Q528.88226,1228.1416,528.54376,1227.9703L525.97974,1226.8876Q525.9026,1226.8309,525.78723,1226.5005L525.28796,1224.7627Q525.23413,1224.647,525.0368,1224.5496L520.8668,1222.7216Q516.7261,1222.72,514.661,1222.8446"/>
</g>
<g style="fill:rgb(9,31,100); fill-opacity:1.0; stroke-linejoin: miter">
<path d="M516.7073,1226.9271L516.9328,1230.465Q516.9414,1230.7429,517.06616,1230.8735L529.0765,1230.2657L516.7073,1226.9271"/>
</g>
<g style="fill:rgb(9,31,100); fill-opacity:1.0; stroke-linejoin: miter">
<path d="M520.8159,1226.6177L520.96313,1230.6771L528.97156,1230.271Q529.0283,1230.2777,529.0261,1229.852L528.912,1227.1322Q528.91296,1227.1127,528.83527,1227.0791L524.89874,1226.4298L520.8159,1226.6177"/>
</g>
<g style="fill:rgb(9,31,100); fill-opacity:1.0; stroke-linejoin: miter">
<path d="M524.81555,1226.4481L520.96313,1230.6771L524.9278,1230.4703L524.9384,1230.4596Q524.9782,1230.3993,524.9704,1230.0576L524.81555,1226.4481"/>
</g>
<g style="fill:rgb(9,31,100); fill-opacity:1.0; stroke-linejoin: miter">
<path d="M528.9855,1229.0144L520.96313,1230.6771L528.96466,1230.2714Q529.0534,1230.0704,528.9855,1229.0144"/>
</g>
<g style="fill:rgb(9,31,100); fill-opacity:1.0; stroke-linejoin: miter">
<path d="M494.94104,1197.3403L495.59494,1211.628Q495.57962,1212.4482,495.72525,1212.8469L497.88272,1214.4017L499.35715,1217.8302Q500.4127,1218.2891,500.64877,1218.5688L503.44626,1222.2738Q503.54932,1222.4397,505.6452,1222.8173L507.93347,1226.1293L511.41583,1226.8325Q511.6128,1227.0275,512.1427,1228.8468Q512.28467,1229.0645,512.5312,1229.1719L516.2251,1230.6167L518.0419,1230.6423Q518.3134,1230.566,518.49976,1230.2893L520.55536,1227.0343L524.5518,1226.4451Q524.0999,1226.5089,523.721,1226.1515L520.65564,1222.679L520.3491,1220.368L516.44354,1218.7202L516.11414,1215.6375L512.2762,1214.8942L511.84723,1212.0903L508.61462,1211.2013L507.7011,1208.022L504.1753,1207.132L503.35168,1203.5056L499.6598,1203.294L499.0608,1199.647L495.22388,1199.483Q495.1018,1199.7153,494.94104,1197.3403"/>
</g>
<g style="fill:rgb(9,31,100); fill-opacity:1.0; stroke-linejoin: miter">
<path d="M490.51013,1191.5505L487.90747,1191.7087Q487.78644,1191.8202,487.63184,1192.2822L486.85107,1195.1178L486.81592,1195.5725Q486.70502,1197.8254,487.30585,1207.9164Q487.4126,1208.2714,487.7216,1208.5472L491.41245,1211.7227L493.92276,1211.7706L495.5836,1215.1792L495.62906,1212.3646L499.46375,1211.4625Q499.5207,1211.455,499.55402,1211.3608Q499.63562,1211.1469,499.5739,1210.3062Q499.46436,1207.5024,499.25214,1203.5994Q499.21545,1203.4995,498.9732,1203.4739L497.36456,1203.4027L495.03723,1199.5144L494.82037,1196.1733Q494.85608,1195.9772,496.37378,1195.7189L490.51013,1191.5505"/>
</g>
<g style="fill:rgb(9,31,100); fill-opacity:1.0; stroke-linejoin: miter">
<path d="M494.7752,1195.455L494.80316,1196.0089L494.80206,1195.9851L494.80084,1195.9615L494.77783,1195.508L494.7766,1195.4816L494.7752,1195.455 M494.8214,1196.3667L494.91437,1198.2003L494.91357,1198.1846L494.91272,1198.1687L494.89484,1197.8153L494.89423,1197.8026L494.84784,1196.8881L494.847,1196.8707L494.82355,1196.4088L494.8225,1196.3878L494.8214,1196.3667 M494.92676,1198.4456L494.98578,1199.6107L494.9864,1199.6226L494.98993,1199.6932L494.99054,1199.7051L494.9912,1199.717L494.9347,1198.6022L494.93378,1198.5842L494.9281,1198.4729L494.92743,1198.4592L494.92676,1198.4456 M494.9942,1199.7743L494.99548,1199.7997L494.99677,1199.825L495.003,1199.9482L495.00226,1199.9343L494.9942,1199.7743 M495.00665,1200.0215L495.00787,1200.045L495.01025,1200.093L495.00964,1200.0785L495.00885,1200.0641L495.00665,1200.0215 M495.03455,1200.5717L495.0622,1201.1167L495.06305,1201.133L495.06335,1201.1388L495.06274,1201.1273L495.042,1200.718L495.04114,1200.7008L495.03613,1200.6025L495.03534,1200.5872L495.03455,1200.5717 M495.06793,1201.229L495.07855,1201.4388L495.07916,1201.4524L495.0799,1201.4661L495.06873,1201.2446L495.06793,1201.229 M495.12653,1202.386L495.12726,1202.4014L495.12805,1202.4166L495.1449,1202.748L495.14557,1202.7631L495.14636,1202.7781L495.12653,1202.386 M495.1629,1203.1039L495.1706,1203.2556L495.1712,1203.2676L495.16504,1203.1466L495.164,1203.1252L495.1629,1203.1039"/>
</g>
<g style="fill:rgb(9,31,100); fill-opacity:1.0; stroke-linejoin: miter">
<path d="M509.55908,1166.1824L509.5116,1166.187Q509.32294,1166.2151,509.1552,1166.3892L507.458,1168.3691L506.22913,1169.0906L503.39685,1172.717L502.14386,1173.5016L498.25214,1178.7972L494.8338,1182.5049L494.4444,1184.0068L490.91113,1186.991Q490.77106,1187.1763,490.72583,1187.5256L490.54645,1190.6439L488.40527,1191.3557L486.78217,1195.5284L487.53497,1195.8771L490.75165,1199.472Q490.9355,1199.6095,491.11255,1199.5851Q491.2315,1199.5709,491.35425,1199.492L494.62616,1195.5739Q494.64136,1195.4608,496.95685,1195.2822L498.36414,1191.9808L501.1167,1191.2496L502.02295,1188.5284L505.8025,1186.9551Q505.92352,1187.1418,506.13556,1184.9885L509.44763,1182.889Q509.68365,1182.278,509.77606,1181.143L509.55908,1166.1824"/>
</g>
<g style="fill:rgb(9,31,100); fill-opacity:1.0; stroke-linejoin: miter">
<path d="M494.15564,1183.2317L493.555,1186.1799L494.23645,1185.8927Q494.27045,1185.8527,494.2804,1185.8116Q494.28625,1185.7773,494.2843,1185.7705L494.15564,1183.2317 M493.555,1186.1798L491.2356,1187.158Q491.09088,1187.3036,491.03723,1187.4985L490.80847,1189.1959Q490.78253,1189.347,490.67822,1189.4482Q490.55334,1189.5818,490.33124,1189.7057L487.69946,1191.1006L487.64398,1191.18Q487.51324,1191.4719,487.42743,1191.8896L486.9043,1194.6924L490.4237,1195.5826Q490.49872,1195.6813,490.57202,1196.1525L490.8847,1199.2921L493.555,1186.1798"/>
</g>
<g style="fill:rgb(9,31,100); fill-opacity:1.0; stroke-linejoin: miter">
<path d="M509.8258,1170.2773L506.32538,1182.6146Q507.76752,1182.4296,508.03278,1182.6895L509.57385,1184.9941Q509.9807,1185.644,510.08063,1185.9374L513.2013,1188.8224L513.9506,1190.9419Q514.0737,1191.1797,514.43,1191.4349L518.83984,1193.9923L522.5838,1193.9722Q522.7119,1193.9739,522.811,1193.7194Q523.18427,1192.6365,522.6456,1183.8738L518.82733,1182.118Q518.7387,1182.0667,518.66925,1181.6665L518.2982,1178.1392L516.41705,1178.0304L514.17914,1174.3419Q514.0486,1174.0056,514.02106,1173.2062Q513.9668,1172.9979,513.8564,1172.8844L509.8258,1170.2773"/>
</g>
<g style="fill:rgb(9,31,100); fill-opacity:1.0; stroke-linejoin: miter">
<path d="M509.56158,1166.2223L509.76514,1170.2391L507.19208,1170.3832Q507.45007,1170.6099,507.5429,1170.7369L509.8584,1174.1307Q509.86804,1174.16,509.99402,1174.1844Q510.09314,1174.2058,510.38495,1174.2001L513.1393,1174.0919Q513.19824,1174.029,513.2535,1173.7433L513.6957,1170.8586Q513.68225,1170.805,513.5231,1170.7822L509.86163,1170.2396Q509.77612,1170.1111,509.75604,1169.8833L509.56158,1166.2223"/>
</g>
<g style="fill:rgb(9,31,100); fill-opacity:1.0; stroke-linejoin: miter">
<path d="M509.55945,1166.1824L509.9135,1173.1652L509.88654,1172.5751Q509.91418,1172.457,510.01654,1172.3838L513.45557,1170.2513Q513.45605,1170.2332,513.3968,1170.2229L513.1553,1170.209L510.04974,1170.2366L509.55945,1166.1824"/>
</g>
<g style="fill:rgb(9,31,100); fill-opacity:1.0; stroke-linejoin: miter">
<path d="M509.55945,1166.1824L509.9585,1173.8221Q509.97614,1173.8506,510.13538,1173.8683L511.67932,1173.9567Q511.84674,1173.9484,511.92474,1173.8713Q512.04114,1173.7705,512.14557,1173.569L513.6305,1170.437L509.55945,1166.1824"/>
</g>
<g style="fill:rgb(9,31,100); fill-opacity:1.0; stroke-linejoin: miter">
<path d="M509.55945,1166.1824L509.92346,1173.3605L509.86987,1172.2725Q509.89734,1172.1027,510.03485,1172.0033Q510.1656,1171.9005,510.2813,1171.8411L513.7346,1170.078L509.55945,1166.1824"/>
</g>
<g style="fill:rgb(9,31,100); fill-opacity:1.0; stroke-linejoin: miter">
<path d="M509.55945,1166.1824L509.83948,1171.7047Q509.84833,1171.6315,509.938,1171.5844L513.65955,1170.0977L509.55945,1166.1824 M509.83948,1171.7051L509.8598,1172.1085L509.8805,1172.5117Q509.8598,1172.1085,509.83948,1171.7051"/>
</g>
<g style="fill:rgb(9,31,100); fill-opacity:1.0; stroke-linejoin: miter">
<path d="M509.55945,1166.1824L509.62323,1167.4681Q509.59857,1167.6989,509.46283,1167.8317L506.11194,1170.172Q506.08282,1170.1735,506.05573,1170.6023Q506.03485,1170.8036,505.99133,1172.3424Q506.01868,1172.5443,506.26404,1172.6797L509.89,1174.2411Q509.96777,1174.2343,510.33887,1173.848L513.7117,1170.1525Q513.792,1170.1144,513.74133,1169.0919Q513.76166,1168.6923,513.61346,1168.6019L509.55945,1166.1824"/>
</g>
<g style="fill:rgb(9,31,100); fill-opacity:1.0; stroke-linejoin: miter">
<path d="M517.1761,1186.0804L516.98236,1186.0912Q516.2162,1186.1389,515.5791,1186.2516Q515.43066,1186.3722,515.3961,1186.5231L514.9507,1189.6027L515.06085,1191.5873L518.8344,1194.0104L519.21857,1196.9728L523.1086,1197.9794L523.51447,1201.3047Q523.6405,1201.4574,523.8071,1201.4817L525.43744,1201.655Q525.5843,1201.6952,525.67145,1201.797L527.6874,1205.6237L528.0222,1209.7452Q528.0432,1209.9038,529.76904,1209.8186L535.9558,1205.5145Q535.96375,1205.3849,535.84534,1205.1162Q535.76685,1204.9655,535.6338,1204.8282Q533.9143,1203.4711,533.95135,1203.3992L533.0054,1201.2372L532.5723,1200.1235Q532.21783,1199.1204,532.17694,1198.5566L529.5031,1195.8475L527.94806,1192.0587Q526.8666,1191.455,526.562,1191.0834L523.18823,1186.4467Q518.9145,1185.9216,517.1761,1186.0804"/>
</g>
<g style="fill:rgb(9,31,100); fill-opacity:1.0; stroke-linejoin: miter">
<path d="M521.94135,1190.009L518.94446,1190.4014L519.2777,1194.2379Q519.3162,1194.5938,519.37445,1194.8223L521.05145,1199.1163L523.867,1200.7256L524.5197,1203.9353L526.3509,1207.5986L528.84717,1209.3218Q528.9481,1209.4298,529.04755,1209.6284Q529.5677,1211.2941,529.74066,1211.5033L532.3105,1213.8334L526.74506,1194.5896Q526.583,1193.7733,526.4693,1193.5039L526.3988,1193.3853L522.6521,1191.6526L522.2503,1190.2644Q522.1866,1190.0635,521.94135,1190.009"/>
</g>
<g style="fill:rgb(9,31,100); fill-opacity:1.0; stroke-linejoin: miter">
<path d="M531.6827,1201.6763L531.6106,1201.6808Q531.30005,1201.6262,530.83484,1202.081L528.0079,1205.7404L528.0597,1209.8302Q528.10706,1209.9111,528.8328,1209.8986Q528.9028,1209.9122,529.0406,1210.02L532.16437,1213.6624L544.6861,1217.2732L544.57574,1215.569Q544.43274,1215.5623,543.89905,1214.8417Q542.83124,1213.336,541.9551,1211.9261L540.3993,1206.8538L536.24335,1202.0204Q536.14636,1201.9218,536.08496,1201.8945Q536.01013,1201.8533,535.91656,1201.8254L531.6827,1201.6763"/>
</g>
<g style="fill:rgb(9,31,100); fill-opacity:1.0; stroke-linejoin: miter">
<path d="M536.548,1209.8535L536.5304,1209.8612Q536.4637,1209.9039,536.4451,1210.1428L536.38745,1212.6461Q536.3697,1212.7753,536.23334,1212.9374L532.46783,1213.8643L528.8525,1217.6527Q528.7697,1217.7896,528.7576,1218.9834Q528.6946,1219.2477,528.5381,1219.3992L524.98425,1222.0791L525.0198,1230.4713L529.6094,1230.2126L531.41327,1228.0399L535.11664,1226.5154L535.7761,1225.1611L539.05994,1222.7886L539.67584,1220.8304Q539.73254,1220.6771,539.9234,1220.4672L543.44635,1218.0327Q543.5525,1217.868,543.6102,1217.6957L544.30896,1214.0809Q544.29486,1213.9436,544.1695,1213.7903Q544.09064,1213.7158,543.9749,1213.7083L540.798,1213.4269Q540.6588,1213.3064,540.556,1212.3279Q540.5281,1212.2203,540.4185,1212.125L536.548,1209.8535"/>
</g>
<g style="fill:rgb(9,31,100); fill-opacity:1.0; stroke-linejoin: miter">
<path d="M523.2902,1226.4882L523.14435,1226.4956L522.0597,1226.5548L520.96313,1230.6771L531.8424,1230.1309Q531.91876,1230.127,531.9886,1230.0161Q532.04285,1229.963,532.15314,1229.572L532.77686,1226.7102Q532.79364,1226.6276,532.66425,1226.5715L529.47186,1226.2653Q529.2751,1226.2491,529.06396,1226.2482Q526.20685,1226.3448,523.2902,1226.4882"/>
</g>
<g style="fill:rgb(9,31,100); fill-opacity:1.0; stroke-linejoin: miter">
<path d="M527.63275,1226.3934L520.3014,1228.8954Q519.9103,1229.602,519.98145,1230.4048Q520.0036,1230.8004,520.4442,1231.0972Q520.53186,1231.1526,520.8054,1231.2097Q522.38806,1231.4105,523.4731,1231.6138Q523.81635,1231.6627,524.80237,1231.3798Q525.1148,1231.2638,525.40814,1230.9711Q525.5549,1230.8247,525.6968,1230.6343L526.0623,1230.0934Q526.47565,1229.3322,527.217,1227.7947Q527.5879,1226.6809,527.63275,1226.3934"/>
</g>
<g style="fill:rgb(9,31,100); fill-opacity:1.0; stroke-linejoin: miter">
<path d="M526.8188,1227.8516L526.46747,1227.9825Q526.12634,1228.1233,525.82605,1228.3037Q525.5257,1228.4841,525.26624,1228.7041L525.01697,1228.934L524.7881,1229.1836Q524.56946,1229.4431,524.3916,1229.7422Q524.3154,1229.9482,524.32196,1230.0099Q524.2789,1230.2748,524.45636,1230.8582Q524.5867,1231.1936,524.9765,1231.6183Q525.24646,1231.917,525.5392,1232.0165Q525.9034,1232.1252,526.21704,1231.9922Q526.4628,1231.8927,526.59796,1231.7957L527.8773,1230.8341Q528.2126,1230.539,528.4436,1230.2339L528.7088,1230.0007L526.8188,1227.8516"/>
</g>
</g>
</svg>